<?xml version="1.0" encoding="UTF-8"?>
<svg id="emo" xmlns="http://www.w3.org/2000/svg" viewBox="0 0 159.79 162.07">
  <defs>
    <style>
      .cls-1 {
        fill: #fbd65d;
      }

      .cls-2, .cls-3 {
        fill: #522b11;
      }

      .cls-3 {
        stroke: #57361a;
        stroke-miterlimit: 10;
      }
    </style>
  </defs>
  <path id="_0" data-name="0" class="cls-1" d="m156.39,89.21c-.87.74-1.76,1.45-2.64,2.18-.59-.54-1.45-.76-2.25-.2-2.65,1.83-5.33,3.63-8.01,5.41,3.09-2.37,6.13-4.84,9.1-7.41,1.04-.9.61-2.34-.31-3.04.89-.52,1.77-1.05,2.66-1.56,2.28-1.32.28-4.48-2.02-3.45-.99.44-1.99.89-2.98,1.33-.52.23-.82.59-.95.98-.81.48-1.62.95-2.43,1.43.05-.06.11-.13.16-.19,3.17-2.86,6.29-5.8,9.32-8.85,1.55-1.56-.53-4.48-2.39-3.16-.58-.74-1.6-1.13-2.54-.52-.23.15-.46.29-.69.44.39-1.51-1.29-3.08-2.95-2.23-1.24.64-2.46,1.29-3.67,1.97,1.61-1.65,3.19-3.33,4.74-5.05,1.23-1.37.07-4.09-1.95-3.34-.9.33-1.78.69-2.66,1.05.89-.87,1.8-1.72,2.68-2.6,1.14-1.14.48-2.72-.68-3.22,1.34-1.29,2.68-2.59,3.99-3.91,1.66-1.67-.44-4.14-2.42-3.14-6.13,3.07-11.94,6.66-17.64,10.41,1.65-1.51,3.28-3.03,4.89-4.57.18-.17.31-.37.4-.57,2.24-2.02,4.38-4.15,6.32-6.51,1.38-1.67-.36-4.39-2.42-3.14-1.97,1.19-3.93,2.38-5.9,3.58,4.67-3.7,9.07-7.69,12.76-12.52,1.21-1.59-1.15-3.86-2.74-2.74-.83.59-1.67,1.18-2.5,1.77,1.11-1.5-1.04-4.04-2.74-2.81-1.01.73-2.02,1.46-3.03,2.19.93-.76,1.87-1.52,2.8-2.28,1.87-1.52-.51-4.08-2.42-3.14-3.66,1.79-7.32,3.58-10.98,5.37,1.76-1.43,3.37-2.71,3.7-2.97,1.1-.88.75-2.11-.12-2.79.98-.84,1.96-1.67,2.93-2.51,1.7-1.49-.58-4.47-2.42-3.14-3.98,2.87-7.96,5.73-11.97,8.58,2.66-2.45,5.15-5.07,7.32-8,.64-.86.24-1.94-.51-2.56,1.96-1.74.05.07,1.96-1.74,1.92-1.82-2.57-4.78-4.54-3.24-12.38,9.72-19.74,15.53-33.14,23.74,10.26-7,20.21-14.47,29.82-22.38,1.25-1.03.4-2.88-.85-3.36-.12-1.34-1.48-2.56-2.93-1.62-1.58,1.02-3.17,2.02-4.76,3.01,1.79-1.42-.14-4.54-2.26-3.27-9.22,5.49-18.53,10.69-27.94,15.64,6.63-4.39,13.18-8.9,19.69-13.45.33-.23.55-.52.7-.83.85-.58,1.69-1.17,2.54-1.76,2.09-1.47.1-4.94-2.02-3.45-.65.45-1.3.89-1.95,1.34-.1-1.46-1.68-2.37-2.99-1.63-.57.32-1.13.66-1.68,1,.62-.48,1.24-.95,1.86-1.43,0,0,0,0,0,0h0c.13-.11.27-.21.41-.31,1.8-1.42-.53-4.33-2.42-3.14-5.44,3.4-10.92,6.77-16.43,10.06,4.72-3.35,9.31-6.88,13.75-10.65,1.74-1.48-.53-4.35-2.42-3.14-4.01,2.56-8.03,5.11-12.07,7.62.02-.01.04-.03.06-.04,1.49-1.19.13-3.31-1.41-3.41-1.72-.12-3.31.44-4.83,1.25.84-.78,1.66-1.58,2.47-2.41,1.57-1.62-.45-4.34-2.42-3.14-2.55,1.55-5.11,3.06-7.69,4.55.39-.37.59-.84.64-1.32-6.02,1.1-12.44,2.93-17.83,5.85-3.84,2.08-7.53,4.46-11.52,6.22.58.58,1.46.88,2.39.45,1.89-.87,3.78-1.74,5.66-2.62-5.22,3.18-10.49,6.26-15.84,9.22-2.13,1.18-.57,3.98,1.54,3.66.96-.15,1.91-.36,2.87-.61-2.01,1.06-4.01,2.15-5.98,3.27-1.12.64-1.13,2.08-.52,2.99-2.67,1.96-5.27,4.02-7.81,6.18-1.07.92-.58,2.57.52,3.18-2.48,2-4.68,4.27-5.46,7.33-.14.53-.05,1,.15,1.4-.08.08-.16.15-.23.22-1.16,1.18-.38,3.54,1.41,3.41.04,0,.08,0,.13-.01-3.26,2.31-6.51,4.62-9.77,6.92-1.69,1.19-1,3.51,1.01,3.73,2.96.32,5.87-.5,8.69-1.72.37.17.83.2,1.36,0,.27-.1.54-.21.81-.31-6.27,4.15-5.08,3.36-11.35,7.52C1.22,73.37-.03,78.21,0,81.12c.41.33.98.45,1.65.18.39-.15.78-.31,1.17-.46-.04,1.11,1.07,2.2,2.29,2.14-.41.51-.66,1.11-.57,1.89.13,1.13,1.09,2.27,2.34,1.97.3.28.68.47,1.1.48-1.72,1.16-3.92,2.66-2.99,4.9.42,1.01,1.31,1.7,2.46,1.4,1.15-.3,7.2-2.27,9.9-2.9-2.36,1.09-4.73,2.17-7.11,3.22-1.25.55-1.2,2.04-.5,2.97-1.47,1.05-2.94,2.11-4.4,3.16-1.72,1.23-.74,4.46,1.54,3.66,4.83-1.71,9.65-3.42,14.48-5.13-3.17,1.92-6.27,3.91-9.11,6.28-.3.14-.6.29-.91.43-.55.26-.84.71-.93,1.2-.81.76-1.59,1.55-2.34,2.39-1.24,1.41-.08,4.01,1.95,3.34,5.58-1.83,11.15-3.66,16.73-5.49.22.16.46.28.72.35-2.53,1.26-5.07,2.51-7.6,3.76-.57.28-.86.76-.94,1.29-1.97,1.24-3.89,2.57-5.66,4.09-1.52,1.3.09,3.96,1.95,3.34,1.19-.39,2.37-.8,3.54-1.22.46.67,1.22,1.09,2.1.77.54-.2,1.07-.4,1.61-.6-4.3,2.23-9.91,5.65-7.43,9.63.45.73,1.4,1.21,2.26.92.87-.3,1.74-.6,2.61-.91,0,1,.62,1.94,1.91,1.79,1.44-.16,2.85-.37,4.27-.6-.3.17-.6.33-.9.5-2,1.1-.64,4.28,1.54,3.66,1.45-.41,2.9-.83,4.35-1.24.04.18.11.36.2.52-1.24.86-2.45,1.76-3.59,2.75-1.6,1.39.12,3.76,1.95,3.34,1.46-.34,2.91-.71,4.35-1.11.24.03.49,0,.75-.08,1.11-.36,2.22-.74,3.33-1.12,3.34-1.06,6.62-2.3,9.85-3.68,16.16-6.46,31.69-14.72,46.97-22.87,8.03-4.28,15.96-8.72,23.83-13.29-.03.05-.05.11-.08.17-25.05,16.23-52.54,28.77-79.71,41.07-2.07.94-.59,4.38,1.54,3.66,26.67-9.02,51.35-22.27,74.89-37.42-23.65,16.17-49.63,29.01-76.07,40.05-2.32.97-1.37,4.79,1.06,3.86,5.51-2.12,10.97-4.33,16.4-6.62-3.54,1.84-7.06,3.7-10.55,5.61-1.96,1.07-.6,4.49,1.54,3.66,3.22-1.26,6.43-2.55,9.63-3.87-.22.4-.27.87-.19,1.32-.31.13-.61.27-.92.4-2.07.89-.57,4.47,1.54,3.66,4.52-1.75,8.99-3.6,13.42-5.53-3.07,2.08-6.14,4.17-9.21,6.25-1.78,1.21-.71,4.45,1.54,3.66,4.88-1.73,9.72-3.55,14.52-5.46-.06,1.31,1.42,2.76,3.04,2.03,5.55-2.51,11.02-5.17,16.42-7.96-6.25,3.82-12.56,7.55-18.86,11.26-2.27,1.34-.29,4.49,2.02,3.45,3.61-1.63,7.18-3.33,10.71-5.1-.53,1.51,1.08,3.45,2.87,2.43,2.2-1.26,4.41-2.52,6.61-3.78-1.27.76-2.53,1.52-3.81,2.27-2.24,1.3-.25,4.67,2.02,3.45,4.27-2.28,8.53-4.55,12.8-6.83.47.93,1.57,1.55,2.72.85,3.78-2.3,7.23-4.93,10.46-7.97.96-.91.69-2.12-.08-2.82,5.04-3.62,9.99-7.38,14.83-11.27,1.81-1.46-.51-4.24-2.42-3.14-.85.49-1.71.97-2.56,1.46,3.47-2.86,6.84-5.84,10.08-9,1.24-1.2.48-2.71-.73-3.17,2.86-2.42,5.66-4.92,8.39-7.5,1.46-1.38.21-3.18-1.34-3.29,1.52-1.72,2.97-3.5,4.31-5.36,1.23-1.72-.79-3.26-2.42-2.79,2.07-2.06,4.12-4.16,6.1-6.34,1.75-1.93-.87-4.48-2.83-2.83ZM107.84,18.73c-4,2.47-8.05,4.84-12.13,7.16-.04,0-.09.01-.13.02,4.1-2.37,8.2-4.76,12.26-7.18ZM21.82,88.23c-.06-.13-.13-.26-.23-.38.6-.25,1.2-.49,1.79-.74-.52.37-1.04.75-1.56,1.12Zm26.3-44.04c.96-.41,1.91-.81,2.86-1.23-3.11,1.78-6.24,3.5-9.41,5.16-.04-.11-.1-.22-.16-.32,2.25-1.17,4.48-2.38,6.7-3.61Zm11.7.74c-5.28,2.73-10.55,5.48-15.84,8.19-.53-.28-1.17-.37-1.85-.07-2.04.89-4.08,1.76-6.13,2.6,8-3.44,15.96-6.97,23.82-10.72Zm-2.73,6.33c-.32.17-.64.34-.96.51-.09-.11-.19-.2-.31-.29.35-.18.7-.36,1.05-.54.06.12.13.23.21.33Zm-26.46,24.87c.35-.26.71-.52,1.06-.78,2.26-.94,4.51-1.9,6.76-2.88-2.59,1.25-5.2,2.47-7.82,3.66Zm1.36,47.63c-.16.04-.33.09-.5.13,3.51-1.35,7-2.73,10.46-4.19-3.26,1.48-6.59,2.82-9.97,4.06Zm5.49-31.03s.1-.07.15-.11c.41-.33.59-.77.61-1.21,14.61-6.46,28.68-14.02,42.43-22.16-13.93,8.58-28.47,16.23-43.18,23.49Zm50.35,46.22c6.91-3.44,13.7-7.09,20.37-10.97-6.78,4.24-13.69,8.28-20.65,12.23.24-.4.34-.83.28-1.26Zm6.37,3.29s-.02-.04-.03-.05c5.22-2.8,10.37-5.72,15.45-8.76-5.04,3.11-10.19,6.04-15.43,8.81Zm-17.58-2.77c-.13.06-.26.11-.39.17,0-.31-.07-.62-.21-.91,14.13-6.5,27.97-13.62,41.46-21.37-13.05,8.31-26.82,15.52-40.86,22.11Zm38.55-97.64c-.01.3.01.6.08.89-2.66,1.74-5.31,3.48-7.97,5.21,2.66-2,5.28-4.04,7.89-6.1Zm-11.79,25.97c2.89-2.08,5.74-4.2,8.56-6.39,1.8-1.03,3.58-2.08,5.35-3.15-1.24.91-2.46,1.85-3.66,2.79-3.16,2.05-6.28,4.19-9.45,6.24-.27.17-.54.34-.8.51Zm16.4,6.65c-1.88,1.5-3.77,2.98-5.69,4.41,1.84-1.48,3.73-3.01,5.69-4.41Zm-12.03,23.92c4.36-2.8,8.65-5.7,12.89-8.68.1.34.31.65.58.9-4.47,2.63-8.95,5.24-13.47,7.78Zm23.26-31.26c-.06-.14-.14-.28-.24-.41,1.08-.72,2.16-1.43,3.25-2.14-.99.86-2.01,1.7-3.02,2.55Z"/>
  <g id="_0-2" data-name="0">
    <path class="cls-2" d="m155.35,56.15c-6.04-18.18-17.99-34.09-34.44-44.08S84.68-2,65.77.92c-15.81,2.44-30.71,10.33-41.98,21.65C13.78,32.61,6.63,45.36,2.96,59.04s-3.91,28.3-.56,42.08c3.5,14.4,11,27.83,21.57,38.24,11.92,11.74,27.69,19.21,44.18,21.72,16.46,2.51,33.57.29,48.64-6.88,15.67-7.45,28.41-20.3,35.62-36.09,7.1-15.55,8.94-33.13,5.97-49.91-.72-4.08-1.74-8.11-3.03-12.05-.6-1.83-3.5-1.04-2.89.8,5.14,15.69,5.79,32.82,1.32,48.75-4.51,16.07-14.34,30.39-28.11,39.91-13.27,9.17-29.36,13.69-45.44,13.49-16.01-.2-31.96-5.07-45.09-14.3-12.11-8.52-21.49-20.87-26.79-34.67-4.89-12.75-6.44-26.73-4.54-40.25s7.11-26.43,15.28-37.32S39.33,12.44,52.57,7.46c17.44-6.56,37.09-5.64,54.35,1.04,17.43,6.74,31.73,19.63,40.37,36.18,2.06,3.94,3.77,8.04,5.17,12.26.61,1.82,3.5,1.04,2.89-.8Z"/>
  </g>
  <g id="_2" data-name="2">
    <path class="cls-2" d="m74.62,111.78c-.98,1.23-1.52,2.61-1.6,4.19-.07,1.36.22,2.75.74,4,.56,1.36,1.29,2.6,2.5,3.47.99.71,2.3,1.07,3.52.99,1.37-.09,2.64-.6,3.67-1.52.58-.52.92-1.17,1.24-1.87s.63-1.44.84-2.2c.41-1.43.53-3,.1-4.44-.46-1.52-1.47-2.8-2.77-3.7-2.57-1.78-6.23-1.32-8.24,1.08-.5.6-.63,1.54,0,2.12.56.51,1.58.64,2.12,0,.15-.18.31-.35.48-.51.06-.05.12-.1.17-.15.03-.02.18-.12.03-.02s0,0,.03-.02c.06-.04.12-.08.19-.12.09-.06.19-.11.29-.16.05-.02.1-.04.15-.07.14-.09-.1.04-.11.04.19-.13.5-.17.73-.22.09-.02.22-.07.32-.06,0,0-.3.02-.13.02.05,0,.11,0,.16-.01.17,0,.61-.07.76.02,0,0-.3-.06-.13-.02.05.01.11.02.16.03.11.02.22.05.32.08s.21.06.32.1c.05.02.1.04.16.06.19.06-.23-.12-.05-.02.22.12.44.23.65.37.1.07.28.21.08.04.11.09.22.18.32.28.2.19.39.39.56.61-.14-.18.06.09.09.15.09.13.16.27.24.41.03.06.17.38.12.24s.06.19.08.24c.04.14.08.29.11.43.01.06.02.13.03.19.05.22-.01-.24,0-.02,0,.26.03.51.02.76,0,.13-.01.26-.02.39,0,.05-.04.32-.01.12.03-.18-.02.09-.02.13-.1.56-.26,1.11-.46,1.64-.06.15-.12.31-.18.46s0,0,.01-.03c-.03.07-.06.13-.09.2-.13.28-.29.56-.41.85,0,.02-.07.24-.02.09.05-.14-.02.03-.06.08-.07.08-.15.16-.23.24-.04.04-.29.27-.14.13.14-.13-.14.09-.2.13-.09.06-.18.11-.27.16-.06.03-.41.17-.2.1s-.11.03-.16.05c-.11.04-.23.07-.35.1-.04,0-.28.08-.3.06-.01-.01.32-.02.14-.02-.05,0-.1,0-.15.01-.06,0-.71.04-.72-.01,0-.01.31.06.15.02-.05-.01-.1-.02-.15-.03-.1-.02-.2-.04-.3-.07s-.19-.06-.29-.09c-.15-.04-.12.03.07.04-.05,0-.14-.06-.19-.09-.19-.09-.36-.2-.53-.32-.23-.15.17.17-.03-.03-.09-.09-.18-.17-.27-.26-.1-.11-.24-.31-.08-.07-.06-.1-.13-.19-.19-.28-.14-.22-.28-.45-.4-.69-.08-.15-.15-.3-.22-.45-.03-.06-.05-.11-.08-.17.06.12.06.15,0,.01-.1-.28-.2-.55-.28-.84-.09-.3-.16-.61-.21-.92-.01-.06-.02-.12-.03-.19.02.13.02.2,0,.03-.01-.14-.02-.29-.03-.43-.01-.31,0-.62.03-.92,0-.03.04-.23,0-.04-.04.2.02-.07.02-.1.03-.14.06-.28.1-.42s.08-.27.13-.41c.02-.06.04-.11.07-.17-.08.19-.04.1.03-.03s.14-.26.21-.38c.05-.07.32-.45.13-.21.49-.61.64-1.53,0-2.12-.54-.5-1.6-.66-2.12,0Z"/>
    <path class="cls-2" d="m28.92,60.95c3.58-4.93,9.14-8.18,15.14-9.11.8-.13,1.24-1.13,1.05-1.85-.23-.85-1.04-1.17-1.85-1.05-6.8,1.06-12.91,4.95-16.93,10.49-.48.66-.11,1.67.54,2.05.76.44,1.57.12,2.05-.54h0Z"/>
    <path class="cls-2" d="m113.35,45.62c6.82-1.61,14.28,1.89,17.52,8.07.9,1.71,3.49.2,2.59-1.51-3.87-7.38-12.83-11.36-20.91-9.45-1.88.44-1.08,3.34.8,2.89h0Z"/>
    <path class="cls-2" d="m40.9,69.48c-1.95,5.35-4.59,10.32-7.88,14.97-1.12,1.58,1.48,3.08,2.59,1.51,3.44-4.86,6.14-10.1,8.18-15.69.66-1.82-2.24-2.6-2.89-.8Z"/>
    <path class="cls-2" d="m83.1,114.32c-.09-.6-.55-1.13-1.13-1.31.3-1.12-.89-2.5-2.18-1.74-2.26,1.33-3.89,3.46-4.56,5.99-.25.93.34,1.59,1.06,1.8-.02.03-.04.06-.06.09-.63,1.11.28,2.14,1.25,2.23,0,0,0,0,0,0-1.06,1.63,1.54,3.13,2.59,1.51,1.39-2.13,2.78-4.26,4.17-6.39.69-1.06-.17-2.06-1.14-2.19Z"/>
    <path class="cls-3" d="m121.39,96.34s10.75,1.35,11.28-14.37c.53-15.71-12.73-23.84-20.92-14.44-6.57,7.55-4.38,25.43,9.64,28.81Z"/>
    <path class="cls-3" d="m38.97,95.41s-10.75,1.35-11.28-14.37c-.53-15.71,12.73-23.84,20.92-14.44,6.57,7.55,4.38,25.43-9.64,28.81Z"/>
  </g>
</svg>