<?xml version="1.0" encoding="UTF-8"?>
<svg id="emo" xmlns="http://www.w3.org/2000/svg" viewBox="0 0 159.79 162.07">
  <defs>
    <style>
      .cls-1 {
        fill: #57361a;
        stroke-miterlimit: 10;
      }

      .cls-1, .cls-2 {
        stroke: #57361a;
      }

      .cls-3 {
        fill: #fbd65d;
      }

      .cls-2 {
        fill: none;
        stroke-linecap: round;
        stroke-linejoin: round;
        stroke-width: 3px;
      }

      .cls-4 {
        fill: #522b11;
      }
    </style>
  </defs>
  <path id="_0" data-name="0" class="cls-3" d="m156.39,89.21c-.87.74-1.76,1.45-2.64,2.18-.59-.54-1.45-.76-2.25-.2-2.65,1.83-5.33,3.63-8.01,5.41,3.09-2.37,6.13-4.84,9.1-7.41,1.04-.9.61-2.34-.31-3.04.89-.52,1.77-1.05,2.66-1.56,2.28-1.32.28-4.48-2.02-3.45-.99.44-1.99.89-2.98,1.33-.52.23-.82.59-.95.98-.81.48-1.62.95-2.43,1.43.05-.06.11-.13.16-.19,3.17-2.86,6.29-5.8,9.32-8.85,1.55-1.56-.53-4.48-2.39-3.16-.58-.74-1.6-1.13-2.54-.52-.23.15-.46.29-.69.44.39-1.51-1.29-3.08-2.95-2.23-1.24.64-2.46,1.29-3.67,1.97,1.61-1.65,3.19-3.33,4.74-5.05,1.23-1.37.07-4.09-1.95-3.34-.9.33-1.78.69-2.66,1.05.89-.87,1.8-1.72,2.68-2.6,1.14-1.14.48-2.72-.68-3.22,1.34-1.29,2.68-2.59,3.99-3.91,1.66-1.67-.44-4.14-2.42-3.14-6.13,3.07-11.94,6.66-17.64,10.41,1.65-1.51,3.28-3.03,4.89-4.57.18-.17.31-.37.4-.57,2.24-2.02,4.38-4.15,6.32-6.51,1.38-1.67-.36-4.39-2.42-3.14-1.97,1.19-3.93,2.38-5.9,3.58,4.67-3.7,9.07-7.69,12.76-12.52,1.21-1.59-1.15-3.86-2.74-2.74-.83.59-1.67,1.18-2.5,1.77,1.11-1.5-1.04-4.04-2.74-2.81-1.01.73-2.02,1.46-3.03,2.19.93-.76,1.87-1.52,2.8-2.28,1.87-1.52-.51-4.08-2.42-3.14-3.66,1.79-7.32,3.58-10.98,5.37,1.76-1.43,3.37-2.71,3.7-2.97,1.1-.88.75-2.11-.12-2.79.98-.84,1.96-1.67,2.93-2.51,1.7-1.49-.58-4.47-2.42-3.14-3.98,2.87-7.96,5.73-11.97,8.58,2.66-2.45,5.15-5.07,7.32-8,.64-.86.24-1.94-.51-2.56,1.96-1.74.05.07,1.96-1.74,1.92-1.82-2.57-4.78-4.54-3.24-12.38,9.72-19.74,15.53-33.14,23.74,10.26-7,20.21-14.47,29.82-22.38,1.25-1.03.4-2.88-.85-3.36-.12-1.34-1.48-2.56-2.93-1.62-1.58,1.02-3.17,2.02-4.76,3.01,1.79-1.42-.14-4.54-2.26-3.27-9.22,5.49-18.53,10.69-27.94,15.64,6.63-4.39,13.18-8.9,19.69-13.45.33-.23.55-.52.7-.83.85-.58,1.69-1.17,2.54-1.76,2.09-1.47.1-4.94-2.02-3.45-.65.45-1.3.89-1.95,1.34-.1-1.46-1.68-2.37-2.99-1.63-.57.32-1.13.66-1.68,1,.62-.48,1.24-.95,1.86-1.43,0,0,0,0,0,0h0c.13-.11.27-.21.41-.31,1.8-1.42-.53-4.33-2.42-3.14-5.44,3.4-10.92,6.77-16.43,10.06,4.72-3.35,9.31-6.88,13.75-10.65,1.74-1.48-.53-4.35-2.42-3.14-4.01,2.56-8.03,5.11-12.07,7.62.02-.01.04-.03.06-.04,1.49-1.19.13-3.31-1.41-3.41-1.72-.12-3.31.44-4.83,1.25.84-.78,1.66-1.58,2.47-2.41,1.57-1.62-.45-4.34-2.42-3.14-2.55,1.55-5.11,3.06-7.69,4.55.39-.37.59-.84.64-1.32-6.02,1.1-12.44,2.93-17.83,5.85-3.84,2.08-7.53,4.46-11.52,6.22.58.58,1.46.88,2.39.45,1.89-.87,3.78-1.74,5.66-2.62-5.22,3.18-10.49,6.26-15.84,9.22-2.13,1.18-.57,3.98,1.54,3.66.96-.15,1.91-.36,2.87-.61-2.01,1.06-4.01,2.15-5.98,3.27-1.12.64-1.13,2.08-.52,2.99-2.67,1.96-5.27,4.02-7.81,6.18-1.07.92-.58,2.57.52,3.18-2.48,2-4.68,4.27-5.46,7.33-.14.53-.05,1,.15,1.4-.08.08-.16.15-.23.22-1.16,1.18-.38,3.54,1.41,3.41.04,0,.08,0,.13-.01-3.26,2.31-6.51,4.62-9.77,6.92-1.69,1.19-1,3.51,1.01,3.73,2.96.32,5.87-.5,8.69-1.72.37.17.83.2,1.36,0,.27-.1.54-.21.81-.31-6.27,4.15-5.08,3.36-11.35,7.52C1.22,73.37-.03,78.21,0,81.12c.41.33.98.45,1.65.18.39-.15.78-.31,1.17-.46-.04,1.11,1.07,2.2,2.29,2.14-.41.51-.66,1.11-.57,1.89.13,1.13,1.09,2.27,2.34,1.97.3.28.68.47,1.1.48-1.72,1.16-3.92,2.66-2.99,4.9.42,1.01,1.31,1.7,2.46,1.4,1.15-.3,7.2-2.27,9.9-2.9-2.36,1.09-4.73,2.17-7.11,3.22-1.25.55-1.2,2.04-.5,2.97-1.47,1.05-2.94,2.11-4.4,3.16-1.72,1.23-.74,4.46,1.54,3.66,4.83-1.71,9.65-3.42,14.48-5.13-3.17,1.92-6.27,3.91-9.11,6.28-.3.14-.6.29-.91.43-.55.26-.84.71-.93,1.2-.81.76-1.59,1.55-2.34,2.39-1.24,1.41-.08,4.01,1.95,3.34,5.58-1.83,11.15-3.66,16.73-5.49.22.16.46.28.72.35-2.53,1.26-5.07,2.51-7.6,3.76-.57.28-.86.76-.94,1.29-1.97,1.24-3.89,2.57-5.66,4.09-1.52,1.3.09,3.96,1.95,3.34,1.19-.39,2.37-.8,3.54-1.22.46.67,1.22,1.09,2.1.77.54-.2,1.07-.4,1.61-.6-4.3,2.23-9.91,5.65-7.43,9.63.45.73,1.4,1.21,2.26.92.87-.3,1.74-.6,2.61-.91,0,1,.62,1.94,1.91,1.79,1.44-.16,2.85-.37,4.27-.6-.3.17-.6.33-.9.5-2,1.1-.64,4.28,1.54,3.66,1.45-.41,2.9-.83,4.35-1.24.04.18.11.36.2.52-1.24.86-2.45,1.76-3.59,2.75-1.6,1.39.12,3.76,1.95,3.34,1.46-.34,2.91-.71,4.35-1.11.24.03.49,0,.75-.08,1.11-.36,2.22-.74,3.33-1.12,3.34-1.06,6.62-2.3,9.85-3.68,16.16-6.46,31.69-14.72,46.97-22.87,8.03-4.28,15.96-8.72,23.83-13.29-.03.05-.05.11-.08.17-25.05,16.23-52.54,28.77-79.71,41.07-2.07.94-.59,4.38,1.54,3.66,26.67-9.02,51.35-22.27,74.89-37.42-23.65,16.17-49.63,29.01-76.07,40.05-2.32.97-1.37,4.79,1.06,3.86,5.51-2.12,10.97-4.33,16.4-6.62-3.54,1.84-7.06,3.7-10.55,5.61-1.96,1.07-.6,4.49,1.54,3.66,3.22-1.26,6.43-2.55,9.63-3.87-.22.4-.27.87-.19,1.32-.31.13-.61.27-.92.4-2.07.89-.57,4.47,1.54,3.66,4.52-1.75,8.99-3.6,13.42-5.53-3.07,2.08-6.14,4.17-9.21,6.25-1.78,1.21-.71,4.45,1.54,3.66,4.88-1.73,9.72-3.55,14.52-5.46-.06,1.31,1.42,2.76,3.04,2.03,5.55-2.51,11.02-5.17,16.42-7.96-6.25,3.82-12.56,7.55-18.86,11.26-2.27,1.34-.29,4.49,2.02,3.45,3.61-1.63,7.18-3.33,10.71-5.1-.53,1.51,1.08,3.45,2.87,2.43,2.2-1.26,4.41-2.52,6.61-3.78-1.27.76-2.53,1.52-3.81,2.27-2.24,1.3-.25,4.67,2.02,3.45,4.27-2.28,8.53-4.55,12.8-6.83.47.93,1.57,1.55,2.72.85,3.78-2.3,7.23-4.93,10.46-7.97.96-.91.69-2.12-.08-2.82,5.04-3.62,9.99-7.38,14.83-11.27,1.81-1.46-.51-4.24-2.42-3.14-.85.49-1.71.97-2.56,1.46,3.47-2.86,6.84-5.84,10.08-9,1.24-1.2.48-2.71-.73-3.17,2.86-2.42,5.66-4.92,8.39-7.5,1.46-1.38.21-3.18-1.34-3.29,1.52-1.72,2.97-3.5,4.31-5.36,1.23-1.72-.79-3.26-2.42-2.79,2.07-2.06,4.12-4.16,6.1-6.34,1.75-1.93-.87-4.48-2.83-2.83ZM107.84,18.73c-4,2.47-8.05,4.84-12.13,7.16-.04,0-.09.01-.13.02,4.1-2.37,8.2-4.76,12.26-7.18ZM21.82,88.23c-.06-.13-.13-.26-.23-.38.6-.25,1.2-.49,1.79-.74-.52.37-1.04.75-1.56,1.12Zm26.3-44.04c.96-.41,1.91-.81,2.86-1.23-3.11,1.78-6.24,3.5-9.41,5.16-.04-.11-.1-.22-.16-.32,2.25-1.17,4.48-2.38,6.7-3.61Zm11.7.74c-5.28,2.73-10.55,5.48-15.84,8.19-.53-.28-1.17-.37-1.85-.07-2.04.89-4.08,1.76-6.13,2.6,8-3.44,15.96-6.97,23.82-10.72Zm-2.73,6.33c-.32.17-.64.34-.96.51-.09-.11-.19-.2-.31-.29.35-.18.7-.36,1.05-.54.06.12.13.23.21.33Zm-26.46,24.87c.35-.26.71-.52,1.06-.78,2.26-.94,4.51-1.9,6.76-2.88-2.59,1.25-5.2,2.47-7.82,3.66Zm1.36,47.63c-.16.04-.33.09-.5.13,3.51-1.35,7-2.73,10.46-4.19-3.26,1.48-6.59,2.82-9.97,4.06Zm5.49-31.03s.1-.07.15-.11c.41-.33.59-.77.61-1.21,14.61-6.46,28.68-14.02,42.43-22.16-13.93,8.58-28.47,16.23-43.18,23.49Zm50.35,46.22c6.91-3.44,13.7-7.09,20.37-10.97-6.78,4.24-13.69,8.28-20.65,12.23.24-.4.34-.83.28-1.26Zm6.37,3.29s-.02-.04-.03-.05c5.22-2.8,10.37-5.72,15.45-8.76-5.04,3.11-10.19,6.04-15.43,8.81Zm-17.58-2.77c-.13.06-.26.11-.39.17,0-.31-.07-.62-.21-.91,14.13-6.5,27.97-13.62,41.46-21.37-13.05,8.31-26.82,15.52-40.86,22.11Zm38.55-97.64c-.01.3.01.6.08.89-2.66,1.74-5.31,3.48-7.97,5.21,2.66-2,5.28-4.04,7.89-6.1Zm-11.79,25.97c2.89-2.08,5.74-4.2,8.56-6.39,1.8-1.03,3.58-2.08,5.35-3.15-1.24.91-2.46,1.85-3.66,2.79-3.16,2.05-6.28,4.19-9.45,6.24-.27.17-.54.34-.8.51Zm16.4,6.65c-1.88,1.5-3.77,2.98-5.69,4.41,1.84-1.48,3.73-3.01,5.69-4.41Zm-12.03,23.92c4.36-2.8,8.65-5.7,12.89-8.68.1.34.31.65.58.9-4.47,2.63-8.95,5.24-13.47,7.78Zm23.26-31.26c-.06-.14-.14-.28-.24-.41,1.08-.72,2.16-1.43,3.25-2.14-.99.86-2.01,1.7-3.02,2.55Z"/>
  <g id="_0-2" data-name="0">
    <path class="cls-4" d="m155.35,56.15c-6.04-18.18-17.99-34.09-34.44-44.08S84.68-2,65.77.92c-15.81,2.44-30.71,10.33-41.98,21.65C13.78,32.61,6.63,45.36,2.96,59.04s-3.91,28.3-.56,42.08c3.5,14.4,11,27.83,21.57,38.24,11.92,11.74,27.69,19.21,44.18,21.72,16.46,2.51,33.57.29,48.64-6.88,15.67-7.45,28.41-20.3,35.62-36.09,7.1-15.55,8.94-33.13,5.97-49.91-.72-4.08-1.74-8.11-3.03-12.05-.6-1.83-3.5-1.04-2.89.8,5.14,15.69,5.79,32.82,1.32,48.75-4.51,16.07-14.34,30.39-28.11,39.91-13.27,9.17-29.36,13.69-45.44,13.49-16.01-.2-31.96-5.07-45.09-14.3-12.11-8.52-21.49-20.87-26.79-34.67-4.89-12.75-6.44-26.73-4.54-40.25s7.11-26.43,15.28-37.32S39.33,12.44,52.57,7.46c17.44-6.56,37.09-5.64,54.35,1.04,17.43,6.74,31.73,19.63,40.37,36.18,2.06,3.94,3.77,8.04,5.17,12.26.61,1.82,3.5,1.04,2.89-.8Z"/>
  </g>
  <g id="_5" data-name="5">
    <path class="cls-2" d="m65.52,96.89s1.43,6.46-4.79,11.35c-6.09,4.79-15.97,2.27-12.23,8.05,3.74,5.78,31.48,16.68,53.63,0"/>
    <path class="cls-2" d="m100.76,108.07s.22,9.73,11.17,10.19"/>
    <g>
      <path class="cls-1" d="m46.97,92.74s10.36.6,9.39-15.6c-.97-16.2-14.38-23.58-21.28-13.31-5.54,8.24-1.77,26.47,11.9,28.91Z"/>
      <path class="cls-2" d="m34.42,69.77s1.18-17.38,26.5-11.96"/>
    </g>
    <g>
      <path class="cls-2" d="m95.03,56.73s1.18-17.38,26.5-11.96"/>
      <path class="cls-1" d="m107.58,79.69s10.36.6,9.39-15.6c-.97-16.2-14.38-23.58-21.28-13.31-5.54,8.24-1.77,26.47,11.9,28.91Z"/>
    </g>
  </g>
</svg>