<?xml version="1.0" encoding="UTF-8"?>
<svg id="emo" xmlns="http://www.w3.org/2000/svg" viewBox="0 0 159.79 162.07">
  <defs>
    <style>
      .cls-1 {
        fill: #fbd65d;
      }

      .cls-2 {
        fill: #522b11;
      }

      .cls-3 {
        fill: #38c4ae;
      }

      .cls-4 {
        fill: #cc4a27;
      }
    </style>
  </defs>
  <path id="_0" data-name="0" class="cls-1" d="m156.39,89.21c-.87.74-1.76,1.45-2.64,2.18-.59-.54-1.45-.76-2.25-.2-2.65,1.83-5.33,3.63-8.01,5.41,3.09-2.37,6.13-4.84,9.1-7.41,1.04-.9.61-2.34-.31-3.04.89-.52,1.77-1.05,2.66-1.56,2.28-1.32.28-4.48-2.02-3.45-.99.44-1.99.89-2.98,1.33-.52.23-.82.59-.95.98-.81.48-1.62.95-2.43,1.43.05-.06.11-.13.16-.19,3.17-2.86,6.29-5.8,9.32-8.85,1.55-1.56-.53-4.48-2.39-3.16-.58-.74-1.6-1.13-2.54-.52-.23.15-.46.29-.69.44.39-1.51-1.29-3.08-2.95-2.23-1.24.64-2.46,1.29-3.67,1.97,1.61-1.65,3.19-3.33,4.74-5.05,1.23-1.37.07-4.09-1.95-3.34-.9.33-1.78.69-2.66,1.05.89-.87,1.8-1.72,2.68-2.6,1.14-1.14.48-2.72-.68-3.22,1.34-1.29,2.68-2.59,3.99-3.91,1.66-1.67-.44-4.14-2.42-3.14-6.13,3.07-11.94,6.66-17.64,10.41,1.65-1.51,3.28-3.03,4.89-4.57.18-.17.31-.37.4-.57,2.24-2.02,4.38-4.15,6.32-6.51,1.38-1.67-.36-4.39-2.42-3.14-1.97,1.19-3.93,2.38-5.9,3.58,4.67-3.7,9.07-7.69,12.76-12.52,1.21-1.59-1.15-3.86-2.74-2.74-.83.59-1.67,1.18-2.5,1.77,1.11-1.5-1.04-4.04-2.74-2.81-1.01.73-2.02,1.46-3.03,2.19.93-.76,1.87-1.52,2.8-2.28,1.87-1.52-.51-4.08-2.42-3.14-3.66,1.79-7.32,3.58-10.98,5.37,1.76-1.43,3.37-2.71,3.7-2.97,1.1-.88.75-2.11-.12-2.79.98-.84,1.96-1.67,2.93-2.51,1.7-1.49-.58-4.47-2.42-3.14-3.98,2.87-7.96,5.73-11.97,8.58,2.66-2.45,5.15-5.07,7.32-8,.64-.86.24-1.94-.51-2.56,1.96-1.74.05.07,1.96-1.74,1.92-1.82-2.57-4.78-4.54-3.24-12.38,9.72-19.74,15.53-33.14,23.74,10.26-7,20.21-14.47,29.82-22.38,1.25-1.03.4-2.88-.85-3.36-.12-1.34-1.48-2.56-2.93-1.62-1.58,1.02-3.17,2.02-4.76,3.01,1.79-1.42-.14-4.54-2.26-3.27-9.22,5.49-18.53,10.69-27.94,15.64,6.63-4.39,13.18-8.9,19.69-13.45.33-.23.55-.52.7-.83.85-.58,1.69-1.17,2.54-1.76,2.09-1.47.1-4.94-2.02-3.45-.65.45-1.3.89-1.95,1.34-.1-1.46-1.68-2.37-2.99-1.63-.57.32-1.13.66-1.68,1,.62-.48,1.24-.95,1.86-1.43,0,0,0,0,0,0h0c.13-.11.27-.21.41-.31,1.8-1.42-.53-4.33-2.42-3.14-5.44,3.4-10.92,6.77-16.43,10.06,4.72-3.35,9.31-6.88,13.75-10.65,1.74-1.48-.53-4.35-2.42-3.14-4.01,2.56-8.03,5.11-12.07,7.62.02-.01.04-.03.06-.04,1.49-1.19.13-3.31-1.41-3.41-1.72-.12-3.31.44-4.83,1.25.84-.78,1.66-1.58,2.47-2.41,1.57-1.62-.45-4.34-2.42-3.14-2.55,1.55-5.11,3.06-7.69,4.55.39-.37.59-.84.64-1.32-6.02,1.1-12.44,2.93-17.83,5.85-3.84,2.08-7.53,4.46-11.52,6.22.58.58,1.46.88,2.39.45,1.89-.87,3.78-1.74,5.66-2.62-5.22,3.18-10.49,6.26-15.84,9.22-2.13,1.18-.57,3.98,1.54,3.66.96-.15,1.91-.36,2.87-.61-2.01,1.06-4.01,2.15-5.98,3.27-1.12.64-1.13,2.08-.52,2.99-2.67,1.96-5.27,4.02-7.81,6.18-1.07.92-.58,2.57.52,3.18-2.48,2-4.68,4.27-5.46,7.33-.14.53-.05,1,.15,1.4-.08.08-.16.15-.23.22-1.16,1.18-.38,3.54,1.41,3.41.04,0,.08,0,.13-.01-3.26,2.31-6.51,4.62-9.77,6.92-1.69,1.19-1,3.51,1.01,3.73,2.96.32,5.87-.5,8.69-1.72.37.17.83.2,1.36,0,.27-.1.54-.21.81-.31-6.27,4.15-5.08,3.36-11.35,7.52C1.22,73.37-.03,78.21,0,81.12c.41.33.98.45,1.65.18.39-.15.78-.31,1.17-.46-.04,1.11,1.07,2.2,2.29,2.14-.41.51-.66,1.11-.57,1.89.13,1.13,1.09,2.27,2.34,1.97.3.28.68.47,1.1.48-1.72,1.16-3.92,2.66-2.99,4.9.42,1.01,1.31,1.7,2.46,1.4,1.15-.3,7.2-2.27,9.9-2.9-2.36,1.09-4.73,2.17-7.11,3.22-1.25.55-1.2,2.04-.5,2.97-1.47,1.05-2.94,2.11-4.4,3.16-1.72,1.23-.74,4.46,1.54,3.66,4.83-1.71,9.65-3.42,14.48-5.13-3.17,1.92-6.27,3.91-9.11,6.28-.3.14-.6.29-.91.43-.55.26-.84.71-.93,1.2-.81.76-1.59,1.55-2.34,2.39-1.24,1.41-.08,4.01,1.95,3.34,5.58-1.83,11.15-3.66,16.73-5.49.22.16.46.28.72.35-2.53,1.26-5.07,2.51-7.6,3.76-.57.28-.86.76-.94,1.29-1.97,1.24-3.89,2.57-5.66,4.09-1.52,1.3.09,3.96,1.95,3.34,1.19-.39,2.37-.8,3.54-1.22.46.67,1.22,1.09,2.1.77.54-.2,1.07-.4,1.61-.6-4.3,2.23-9.91,5.65-7.43,9.63.45.73,1.4,1.21,2.26.92.87-.3,1.74-.6,2.61-.91,0,1,.62,1.94,1.91,1.79,1.44-.16,2.85-.37,4.27-.6-.3.17-.6.33-.9.5-2,1.1-.64,4.28,1.54,3.66,1.45-.41,2.9-.83,4.35-1.24.04.18.11.36.2.52-1.24.86-2.45,1.76-3.59,2.75-1.6,1.39.12,3.76,1.95,3.34,1.46-.34,2.91-.71,4.35-1.11.24.03.49,0,.75-.08,1.11-.36,2.22-.74,3.33-1.12,3.34-1.06,6.62-2.3,9.85-3.68,16.16-6.46,31.69-14.72,46.97-22.87,8.03-4.28,15.96-8.72,23.83-13.29-.03.05-.05.11-.08.17-25.05,16.23-52.54,28.77-79.71,41.07-2.07.94-.59,4.38,1.54,3.66,26.67-9.02,51.35-22.27,74.89-37.42-23.65,16.17-49.63,29.01-76.07,40.05-2.32.97-1.37,4.79,1.06,3.86,5.51-2.12,10.97-4.33,16.4-6.62-3.54,1.84-7.06,3.7-10.55,5.61-1.96,1.07-.6,4.49,1.54,3.66,3.22-1.26,6.43-2.55,9.63-3.87-.22.4-.27.87-.19,1.32-.31.13-.61.27-.92.4-2.07.89-.57,4.47,1.54,3.66,4.52-1.75,8.99-3.6,13.42-5.53-3.07,2.08-6.14,4.17-9.21,6.25-1.78,1.21-.71,4.45,1.54,3.66,4.88-1.73,9.72-3.55,14.52-5.46-.06,1.31,1.42,2.76,3.04,2.03,5.55-2.51,11.02-5.17,16.42-7.96-6.25,3.82-12.56,7.55-18.86,11.26-2.27,1.34-.29,4.49,2.02,3.45,3.61-1.63,7.18-3.33,10.71-5.1-.53,1.51,1.08,3.45,2.87,2.43,2.2-1.26,4.41-2.52,6.61-3.78-1.27.76-2.53,1.52-3.81,2.27-2.24,1.3-.25,4.67,2.02,3.45,4.27-2.28,8.53-4.55,12.8-6.83.47.93,1.57,1.55,2.72.85,3.78-2.3,7.23-4.93,10.46-7.97.96-.91.69-2.12-.08-2.82,5.04-3.62,9.99-7.38,14.83-11.27,1.81-1.46-.51-4.24-2.42-3.14-.85.49-1.71.97-2.56,1.46,3.47-2.86,6.84-5.84,10.08-9,1.24-1.2.48-2.71-.73-3.17,2.86-2.42,5.66-4.92,8.39-7.5,1.46-1.38.21-3.18-1.34-3.29,1.52-1.72,2.97-3.5,4.31-5.36,1.23-1.72-.79-3.26-2.42-2.79,2.07-2.06,4.12-4.16,6.1-6.34,1.75-1.93-.87-4.48-2.83-2.83ZM107.84,18.73c-4,2.47-8.05,4.84-12.13,7.16-.04,0-.09.01-.13.02,4.1-2.37,8.2-4.76,12.26-7.18ZM21.82,88.23c-.06-.13-.13-.26-.23-.38.6-.25,1.2-.49,1.79-.74-.52.37-1.04.75-1.56,1.12Zm26.3-44.04c.96-.41,1.91-.81,2.86-1.23-3.11,1.78-6.24,3.5-9.41,5.16-.04-.11-.1-.22-.16-.32,2.25-1.17,4.48-2.38,6.7-3.61Zm11.7.74c-5.28,2.73-10.55,5.48-15.84,8.19-.53-.28-1.17-.37-1.85-.07-2.04.89-4.08,1.76-6.13,2.6,8-3.44,15.96-6.97,23.82-10.72Zm-2.73,6.33c-.32.17-.64.34-.96.51-.09-.11-.19-.2-.31-.29.35-.18.7-.36,1.05-.54.06.12.13.23.21.33Zm-26.46,24.87c.35-.26.71-.52,1.06-.78,2.26-.94,4.51-1.9,6.76-2.88-2.59,1.25-5.2,2.47-7.82,3.66Zm1.36,47.63c-.16.04-.33.09-.5.13,3.51-1.35,7-2.73,10.46-4.19-3.26,1.48-6.59,2.82-9.97,4.06Zm5.49-31.03s.1-.07.15-.11c.41-.33.59-.77.61-1.21,14.61-6.46,28.68-14.02,42.43-22.16-13.93,8.58-28.47,16.23-43.18,23.49Zm50.35,46.22c6.91-3.44,13.7-7.09,20.37-10.97-6.78,4.24-13.69,8.28-20.65,12.23.24-.4.34-.83.28-1.26Zm6.37,3.29s-.02-.04-.03-.05c5.22-2.8,10.37-5.72,15.45-8.76-5.04,3.11-10.19,6.04-15.43,8.81Zm-17.58-2.77c-.13.06-.26.11-.39.17,0-.31-.07-.62-.21-.91,14.13-6.5,27.97-13.62,41.46-21.37-13.05,8.31-26.82,15.52-40.86,22.11Zm38.55-97.64c-.01.3.01.6.08.89-2.66,1.74-5.31,3.48-7.97,5.21,2.66-2,5.28-4.04,7.89-6.1Zm-11.79,25.97c2.89-2.08,5.74-4.2,8.56-6.39,1.8-1.03,3.58-2.08,5.35-3.15-1.24.91-2.46,1.85-3.66,2.79-3.16,2.05-6.28,4.19-9.45,6.24-.27.17-.54.34-.8.51Zm16.4,6.65c-1.88,1.5-3.77,2.98-5.69,4.41,1.84-1.48,3.73-3.01,5.69-4.41Zm-12.03,23.92c4.36-2.8,8.65-5.7,12.89-8.68.1.34.31.65.58.9-4.47,2.63-8.95,5.24-13.47,7.78Zm23.26-31.26c-.06-.14-.14-.28-.24-.41,1.08-.72,2.16-1.43,3.25-2.14-.99.86-2.01,1.7-3.02,2.55Z"/>
  <g id="_0-2" data-name="0">
    <path class="cls-2" d="m155.35,56.15c-6.04-18.18-17.99-34.09-34.44-44.08S84.68-2,65.77.92c-15.81,2.44-30.71,10.33-41.98,21.65C13.78,32.61,6.63,45.36,2.96,59.04s-3.91,28.3-.56,42.08c3.5,14.4,11,27.83,21.57,38.24,11.92,11.74,27.69,19.21,44.18,21.72,16.46,2.51,33.57.29,48.64-6.88,15.67-7.45,28.41-20.3,35.62-36.09,7.1-15.55,8.94-33.13,5.97-49.91-.72-4.08-1.74-8.11-3.03-12.05-.6-1.83-3.5-1.04-2.89.8,5.14,15.69,5.79,32.82,1.32,48.75-4.51,16.07-14.34,30.39-28.11,39.91-13.27,9.17-29.36,13.69-45.44,13.49-16.01-.2-31.96-5.07-45.09-14.3-12.11-8.52-21.49-20.87-26.79-34.67-4.89-12.75-6.44-26.73-4.54-40.25s7.11-26.43,15.28-37.32S39.33,12.44,52.57,7.46c17.44-6.56,37.09-5.64,54.35,1.04,17.43,6.74,31.73,19.63,40.37,36.18,2.06,3.94,3.77,8.04,5.17,12.26.61,1.82,3.5,1.04,2.89-.8Z"/>
  </g>
  <g id="_6" data-name="6">
    <path class="cls-2" d="m117.9,94.19c.62-1.33,1.26-3.02-.28-3.8-.53-.27-1.02-.23-1.48.02-.35-.11-.74-.11-1.12.09-.36.19-.72.38-1.08.56-.91.33-1.79.7-2.67,1.08-.13-.08-.27-.13-.41-.16.85-1.25-3.71.25-5.11,1.29-2.21,1.65-1.16-.15-3.32,1.55-.28.04-.55.18-.8.44-.11.12-.36.12-.66.15-.51.04-1.01.09-1.48.28-.19.08-.37.17-.53.27-.28-.85-1.15-1.46-2.05-.77-1.06.81-2.11,1.62-3.14,2.45.44-.96-.35-2.46-1.75-2.16-1.41.3-2.81.59-4.22.89-.27.06-.49.17-.65.32-.2-.11-.43-.17-.71-.17h-1.07c-.44-.23-.98-.28-1.48,0h-1.19c-.73,0-1.18.43-1.36.96-.06.06-.13.11-.19.17-.6-.21-1.31-.09-1.74.62-.02.04-.05.07-.07.11-.07-.13-.15-.25-.26-.36-.47-.47-1.3-.58-1.87-.22-.65-.34-1.53-.31-2.07.45-1,1.41-2.02,2.8-3.02,4.21.78-1.32,1.56-2.64,2.33-3.96.62-1.06-.19-2.05-1.12-2.21-.48-.36-1.18-.49-1.67-.12-.49.37-.96.75-1.42,1.15-.51-.81-1.77-1.15-2.43-.21-.25-1.07-1.98-1.68-2.83-.47-.23.33-.46.67-.69,1.01.27-1.51-1.94-2.63-2.74-1.06,0,.02-.02.03-.02.05-.51-.31-1.17-.32-1.69.28-.23.26-.45.53-.68.79-.21-.71-.94-1.27-1.67-1.15.55-1.38-1.26-2.94-2.41-1.65-1.67,1.87-3.24,3.82-4.74,5.82.87-1.41,1.73-2.82,2.6-4.24,1.01-1.65-1.58-3.16-2.59-1.51-.13.21-.25.41-.38.62-.09.03-.17.06-.26.1-.15.08-.29.15-.44.23.45-.63.81-1.32.92-2.18.14-1.03-.64-2.25-1.85-1.85-1.43.48-2.74,1.13-3.97,1.93-.07-.23-.17-.44-.35-.62l-.5-.5c-.58-.58-1.54-.58-2.12,0s-.58,1.54,0,2.12c.17.17.33.33.5.5.08.08.19.13.29.19-.79,1.07.5,2.5,1.75,2.17-.37.56-.68,1.16-.88,1.83-.42,1.37,1.09,2.2,2.2,1.69.28-.12.55-.26.82-.39-.07.08-.13.17-.2.25-.4.5-.43,1.08-.24,1.56-.45.73-.9,1.46-1.35,2.19-.81,1.32.67,2.53,1.82,2.15.05,1.71.52,3.34,1.51,4.83.36.54.88.72,1.39.67.14.78.88,1.4,1.67,1.28-.1.13-.2.27-.3.41-1.18,1.5.93,3.64,2.12,2.12.5-.63.98-1.27,1.46-1.91-.51,1.19-.77,2.31-.46,3.16.29.78.98,1.18,1.73,1.05.03.12.09.24.15.35-.32.52-.64,1.04-.97,1.56-1.02,1.65,1.57,3.16,2.59,1.51.9-1.46,1.8-2.91,2.7-4.37l-1.64,2.79c-.42.72-.09,1.59.51,2.03.32.41.87.65,1.43.63-.42.53-.83,1.07-1.26,1.59-1.21,1.48.85,3.6,2.12,2.12.14-.16.27-.32.41-.48.08-.09.15-.19.2-.29.11-.14.22-.28.33-.41.49.68,1.5,1.01,2.26.24,1.7-1.72,3.42-3.41,5.16-5.1.21.11.45.18.75.17,1.54-.06,2.93-.54,4.11-1.38.41.08.85-.04,1.23-.45,6.84-7.57,14.29-14.5,22.38-20.72,0,.09,0,.18.02.28-6.45,5.3-12.68,10.85-18.68,16.66-1.39,1.34.71,3.44,2.1,2.14.03.72.5,1.36,1.42,1.25,1.32-.16,2.55-.45,3.72-.8.18.75.86,1.43,1.83,1.27.45-.08.89-.13,1.34-.19.95.3,1.92.52,2.91.65.18.07.37.14.55.21.56.21,1.12.43,1.68.64-.24.45-.24.91-.12,1.61.16.96,1.43,1.37,2.22.9.38.84,1.55,1.34,2.35.64-.02,1.03,1.31,1.96,2.3,1.34.84-.53,1.41-1.1,1.98-1.91.23-.33.3-.65.26-.95,1.29-1.76,2.58-3.53,3.87-5.29.53-.72,1.15-1.45,1.74-2.2.48-.1.93-.41,1.14-.99,1.32-3.63,2.85-7.15,4.58-10.6,1.11-2.2,3.87-5.14,3.66-7.7-.04-.52-.29-.89-.63-1.13Zm-65.28,16.89c-.02-.06-.04-.12-.07-.18.9-1.76,2.34-3.37,3.53-4.86-1.1,1.72-2.26,3.39-3.46,5.04Zm5.17,2.79c.43-.7.82-1.31.94-1.53.87-1.64,1.8-3.25,2.74-4.86,1.31-2.24,2.71-4.43,4.17-6.59-2.47,4.41-5.09,8.73-7.84,12.97Zm6.18-3.56c0-.17-.02-.34-.08-.49.98-1.6,1.93-3.22,2.87-4.85.15-.03.3-.08.44-.15l-3.23,5.49Zm6.6-.63c1.52-2.09,3.02-4.19,4.52-6.29.2.09.41.13.61.13-1.64,2.1-3.4,4.12-5.13,6.16Zm27.38-7.39s.08.07.13.11c-.83.63-1.67,1.24-2.49,1.87.78-.67,1.57-1.32,2.36-1.98Zm-9.95,11.81c5.67-4.64,11.47-9.11,17.4-13.42-1.76,1.48-3.53,2.97-5.29,4.45-3.88,3.26-7.59,6.88-12.1,8.97Zm6.06,1.61c-.16,0-.32,0-.47,0,5.05-4.37,10.2-8.63,15.44-12.76-4.42,4.81-9.68,8.83-14.97,12.76Z"/>
    <path class="cls-4" d="m95.95,122.83l-3.92,2.53c.91-1.28,1.82-2.55,2.73-3.83,1-1.4-1.2-3.04-2.36-1.82-2.3,2.43-4.75,4.59-7.38,6.54,1.32-1.86,2.58-3.77,3.76-5.75.87-1.47-1.16-3.04-2.36-1.82-1.55,1.58-4.46,5.5-7.36,8.1,1.39-1.92,2.78-3.83,4.18-5.75,1.06-1.45-1.15-2.88-2.36-1.82-1.81,1.58-3.67,3.07-5.59,4.47.77-1.09,1.53-2.19,2.3-3.28.99-1.42-1.19-3.03-2.36-1.82-2.61,2.72-5.23,5.43-7.84,8.15-.88.91-.27,2.12.62,2.47-.06,1.06,1.27,1.99,2.29,1.38,1.48-.88,2.91-1.82,4.33-2.79-.53.73-1.06,1.46-1.59,2.19-.72.99.27,2.19,1.3,2.26,1.07.07,1.94-.12,2.74-.48-.27,1.15.9,2.33,2.18,1.66,2.05-1.08,4-2.27,5.87-3.55-.06.08-.11.16-.17.23-.88,1.24.83,2.84,2.05,2.05,2.32-1.5,4.64-2.99,6.95-4.49-.04.35-.07.72-.09,1.11-.08,1.94,2.92,1.93,3,0,.37-1.3.74-2.6,1.11-3.9.71-1.27-.75-2.89-2.05-2.05Z"/>
    <path class="cls-2" d="m38.7,92.48c21.04,6.68,43.79,7.56,65.32,2.73,6.07-1.36,12.03-3.2,17.83-5.47l-1.85-1.85c-1.81,4.47-3.61,8.95-5.42,13.42-1.6,3.95-3.11,7.95-4.97,11.79-1.72,3.55-3.76,6.98-6.54,9.8-2.92,2.96-6.6,5.01-10.51,6.38-7.88,2.76-17.29,3.84-25.09.24-6.92-3.2-11.99-9.11-15.8-15.57-2.16-3.66-3.87-7.51-5.6-11.39-1.84-4.12-3.89-8.14-5.68-12.29-.76-1.77-3.35-.24-2.59,1.51,1.69,3.91,3.61,7.71,5.37,11.58s3.25,7.39,5.24,10.92c3.83,6.79,8.92,13.16,15.85,16.95,8.06,4.42,17.6,4.2,26.27,1.81,4.18-1.15,8.29-2.88,11.76-5.51s6.02-5.88,8.13-9.54c2.41-4.18,4.16-8.71,5.96-13.17,2.17-5.38,4.35-10.77,6.52-16.15.41-1.02-.83-2.24-1.85-1.85-20.18,7.91-42.43,10.36-63.84,6.95-6-.96-11.92-2.37-17.71-4.2-1.84-.59-2.63,2.31-.8,2.89Z"/>
    <path class="cls-2" d="m65.18,129.9c2.38-5.58,7.94-9.3,13.92-9.95,3.38-.37,6.78.17,9.97,1.31,1.59.57,3.12,1.31,4.57,2.17.48.28,4.13,2.68,4.03,2.81-1.12,1.58,1.48,3.08,2.59,1.51,1.34-1.9-.53-3.72-1.97-4.81-1.68-1.27-3.46-2.39-5.36-3.3-3.81-1.83-8-2.92-12.24-2.81-7.51.2-15.09,4.47-18.1,11.54-.75,1.76,1.84,3.29,2.59,1.51h0Z"/>
    <path class="cls-3" d="m99.45,67.71s25.17-3.28,33.14,14.46c7.98,17.74-18.94,33.66-33.14-14.46Z"/>
    <path class="cls-3" d="m62.8,67.3s-25.36-1.01-31.71,17.38c-6.36,18.39,21.88,31.83,31.71-17.38Z"/>
    <path class="cls-2" d="m32.53,51.93c9.34,5.73,18.7,11.43,28.04,17.16l1.16-2.74c-5.32-1.49-11.27-.73-16.61.25s-11.09,2.51-16.05,5.1c-1.71.89-.2,3.48,1.51,2.59,4.62-2.41,9.88-3.77,14.98-4.73s10.47-1.69,15.37-.32c1.65.46,2.6-1.86,1.16-2.74-9.34-5.73-18.7-11.43-28.04-17.16-1.65-1.01-3.16,1.58-1.51,2.59h0Z"/>
    <path class="cls-2" d="m122.41,49.21c-4.31,2.17-8.44,4.75-12.37,7.54s-7.83,5.73-10.78,9.49c-.7.89-.39,2.7,1.06,2.56,5.18-.51,10.44-.62,15.62-.13,4.79.45,10.3,1.36,14.22,4.39.65.5,1.49.62,2.12,0,.52-.51.64-1.63,0-2.12-4.35-3.36-9.91-4.56-15.27-5.16s-11.16-.53-16.7.02l1.06,2.56c2.87-3.66,6.7-6.58,10.48-9.24s7.86-5.21,12.06-7.32c1.73-.87.21-3.46-1.51-2.59h0Z"/>
  </g>
</svg>