<?xml version="1.0" encoding="UTF-8" ?>
<!DOCTYPE svg PUBLIC "-//W3C//DTD SVG 1.1//EN" "http://www.w3.org/Graphics/SVG/1.1/DTD/svg11.dtd">
<svg width="1366pt" height="768pt" viewBox="0 0 1366 768" version="1.1" xmlns="http://www.w3.org/2000/svg">
<g id="#ffffffff">
</g>
<g id="#6fa391ff">
<path fill="#6fa391" opacity="1.00" d=" M 1353.33 11.08 C 1354.71 9.58 1356.13 8.11 1357.54 6.63 C 1358.90 8.12 1360.28 9.59 1361.64 11.09 C 1358.86 11.11 1356.09 11.10 1353.33 11.08 Z" />
<path fill="#6fa391" opacity="1.00" d=" M 449.26 72.12 C 460.08 73.53 470.73 75.99 481.52 77.61 C 487.57 79.00 494.15 79.06 499.58 82.37 C 518.99 93.95 538.29 105.71 557.72 117.26 C 561.76 119.74 565.12 123.14 568.75 126.17 C 596.55 151.21 626.33 173.92 655.09 197.84 C 657.11 199.57 659.32 201.38 662.14 201.44 C 681.51 203.44 700.94 204.79 720.30 206.91 C 715.47 208.99 710.42 210.51 705.63 212.68 C 699.49 215.47 694.59 220.54 691.40 226.42 C 687.03 234.44 682.94 242.61 678.54 250.62 C 675.44 256.32 669.11 260.21 667.99 266.93 C 667.29 269.32 670.93 272.78 667.89 274.07 C 666.45 275.22 665.34 273.32 664.51 272.43 C 661.63 268.73 658.33 265.25 654.31 262.80 C 649.24 260.29 643.20 261.20 638.06 258.95 C 633.83 255.88 633.58 250.06 631.08 245.79 C 628.76 241.80 627.05 237.31 623.86 233.93 C 619.74 232.06 616.80 236.93 613.06 237.70 C 609.99 236.96 607.36 234.65 604.10 234.76 C 601.90 234.50 599.17 235.44 597.48 233.57 C 595.29 231.35 597.30 226.64 594.12 225.50 C 590.39 225.22 587.57 228.48 583.95 228.78 C 579.40 228.14 577.16 223.66 574.18 220.73 C 572.07 218.42 568.75 218.18 565.91 217.40 C 561.40 216.49 556.80 214.79 552.16 215.78 C 549.34 216.19 546.42 217.53 543.59 216.44 C 539.18 215.18 534.79 212.74 530.07 213.73 C 523.62 214.86 517.34 216.80 510.94 218.12 C 508.44 218.87 506.01 217.60 503.67 216.91 C 505.68 214.57 508.42 212.63 509.45 209.62 C 510.51 203.92 509.50 197.92 511.32 192.35 C 513.54 189.52 516.69 187.61 519.65 185.63 C 527.89 180.51 536.11 175.36 544.37 170.27 C 547.56 168.25 550.95 166.33 553.40 163.38 C 554.03 162.34 555.36 161.05 554.32 159.83 C 551.75 156.08 546.87 154.51 544.75 150.38 C 543.07 147.41 542.26 143.50 538.98 141.81 C 535.02 139.99 530.51 140.73 526.38 139.71 C 521.84 137.32 518.68 131.67 512.99 132.08 C 506.33 132.24 499.68 132.06 493.03 132.09 C 490.04 132.08 486.97 131.95 484.16 130.80 C 481.29 129.40 479.26 126.38 475.92 126.01 C 468.33 124.69 460.68 123.65 453.08 122.39 C 445.65 121.10 438.39 123.67 431.02 124.11 C 425.38 124.44 419.74 125.64 414.08 125.08 C 411.38 124.00 410.48 120.97 409.10 118.69 C 407.56 115.41 404.61 113.19 401.84 111.01 C 400.69 103.14 404.38 95.77 406.10 88.26 C 417.80 85.00 429.45 81.53 441.12 78.16 C 444.54 77.31 446.79 74.42 449.26 72.12 Z" />
<path fill="#6fa391" opacity="1.00" d=" M 367.73 99.91 C 379.75 96.13 391.82 92.52 403.93 89.07 C 402.67 96.04 398.86 102.81 400.01 110.03 C 400.42 113.67 404.60 114.76 406.38 117.58 C 408.77 120.72 409.59 125.82 414.01 126.81 C 419.33 127.71 424.69 126.27 430.02 125.95 C 437.96 125.41 445.84 122.72 453.83 124.21 C 460.58 125.30 467.34 126.34 474.11 127.36 C 479.21 127.84 482.03 133.40 487.28 133.58 C 495.83 134.10 504.44 134.37 513.00 133.82 C 517.34 133.52 520.02 137.61 523.32 139.74 C 527.31 143.31 533.05 141.54 537.73 143.17 C 540.79 144.59 541.57 148.21 543.12 150.90 C 545.12 155.40 550.16 157.15 553.03 160.94 C 549.94 165.35 545.01 167.82 540.58 170.63 C 532.59 175.63 524.56 180.57 516.59 185.61 C 513.97 187.51 510.96 189.28 509.37 192.20 C 507.93 197.95 508.75 203.99 507.58 209.78 C 506.29 212.17 503.99 213.79 502.04 215.60 C 496.67 215.32 492.06 218.48 487.20 220.24 C 480.09 222.92 474.41 228.47 467.03 230.49 C 461.27 232.19 456.00 235.10 450.58 237.60 C 447.81 238.84 445.78 241.14 443.79 243.35 C 440.00 241.17 436.30 243.40 432.86 245.04 C 430.60 246.48 429.77 243.09 428.59 241.86 C 426.29 241.29 423.96 240.12 421.54 240.71 C 416.28 241.91 410.66 241.27 405.66 239.31 C 402.56 238.03 399.42 235.85 398.39 232.49 C 396.91 227.43 397.85 222.14 397.73 216.98 C 397.79 215.40 396.60 214.10 395.13 213.73 C 392.60 215.23 390.22 217.00 388.07 219.01 C 386.32 221.16 385.76 224.01 384.18 226.28 C 378.71 227.61 373.14 225.53 367.93 223.96 C 360.77 222.08 353.96 226.29 346.99 226.86 C 341.64 222.65 339.36 215.37 333.62 211.50 C 326.03 207.24 317.16 209.24 309.08 210.59 C 306.05 210.94 303.25 212.17 300.84 214.00 C 296.14 213.70 291.50 212.66 286.77 212.91 C 287.39 206.66 288.84 200.55 291.25 194.75 C 303.91 196.80 316.57 198.89 329.17 201.27 C 332.27 202.15 334.57 199.45 336.82 197.80 C 340.54 194.51 344.60 191.61 348.12 188.10 C 351.61 183.74 353.79 178.52 356.87 173.88 C 358.27 171.35 361.55 171.52 363.98 170.78 C 371.50 168.99 379.30 168.14 386.64 165.71 C 389.46 161.20 390.25 155.68 393.23 151.26 C 397.20 148.20 401.90 146.23 406.13 143.54 C 401.01 137.13 395.52 131.04 390.20 124.80 C 383.14 116.13 375.11 108.31 367.73 99.91 Z" />
<path fill="#6fa391" opacity="1.00" d=" M 724.84 206.96 C 728.57 204.88 732.90 206.02 736.90 206.41 C 745.30 207.59 753.82 208.19 762.14 209.86 C 765.61 212.72 766.38 217.80 767.27 222.04 C 767.62 225.14 769.88 227.40 771.74 229.71 C 781.54 229.78 791.34 229.78 801.14 229.70 C 802.07 230.73 802.91 231.83 803.62 233.04 C 803.15 233.51 802.21 234.44 801.73 234.91 C 803.23 237.72 805.25 240.19 806.81 242.97 C 806.65 245.82 807.71 248.47 808.98 250.96 C 809.90 251.28 810.83 251.60 811.77 251.94 C 812.26 254.35 813.89 256.17 815.61 257.82 C 814.65 259.90 813.84 262.05 813.13 264.23 C 814.07 264.96 815.02 265.70 815.97 266.45 C 815.87 267.06 815.66 268.30 815.55 268.92 C 816.80 269.81 818.04 270.70 819.30 271.61 C 819.70 270.94 820.50 269.61 820.90 268.94 C 822.14 270.10 823.32 271.36 824.75 272.32 C 827.66 272.57 831.17 271.20 833.18 274.12 C 830.60 274.45 828.04 274.82 825.60 275.70 C 827.14 276.73 828.73 277.73 830.32 278.73 C 830.37 279.36 830.47 280.61 830.52 281.23 C 831.22 281.20 832.63 281.14 833.33 281.11 C 833.67 282.81 833.79 284.54 834.02 286.27 C 834.93 287.29 835.79 288.37 836.87 289.26 C 838.80 289.75 840.83 289.77 842.81 290.16 C 845.50 292.13 846.76 295.46 849.31 297.60 C 852.64 300.58 857.34 301.10 860.87 303.77 C 858.11 307.19 859.71 311.59 860.59 315.39 C 861.17 318.66 864.94 319.07 867.20 320.79 C 868.25 323.06 867.82 325.66 867.87 328.08 C 866.35 329.18 865.68 330.87 865.18 332.59 C 864.25 330.67 863.06 328.90 861.54 327.40 C 860.68 328.57 859.88 329.76 859.09 330.98 C 859.36 333.21 859.47 335.46 859.57 337.72 C 860.90 337.90 862.35 337.72 863.60 338.34 C 864.07 341.44 864.69 344.56 866.14 347.37 C 865.79 347.80 865.11 348.65 864.76 349.07 C 867.73 352.20 870.05 355.86 872.85 359.15 C 874.01 360.66 876.06 360.77 877.74 361.42 C 879.55 366.52 880.07 371.93 881.01 377.24 C 884.14 378.82 885.55 382.09 887.15 385.00 C 887.66 387.12 888.14 389.25 888.64 391.37 C 889.27 391.43 890.51 391.54 891.13 391.59 C 892.87 394.25 894.54 397.61 898.01 398.25 C 901.78 399.43 905.19 396.97 908.52 395.59 C 908.76 397.32 909.03 399.05 909.33 400.79 C 911.33 398.92 913.53 397.27 915.54 395.40 C 913.60 400.24 907.86 403.04 908.13 408.81 C 910.37 409.75 912.75 408.72 915.08 408.69 C 916.70 409.03 917.91 410.34 919.33 411.17 C 919.39 413.86 918.97 416.90 920.94 419.09 C 929.42 430.27 938.14 441.27 946.61 452.47 C 950.48 456.82 953.24 462.62 958.08 465.85 C 990.23 470.51 1022.51 474.37 1054.70 478.84 C 1055.45 477.88 1056.22 476.93 1057.00 475.99 C 1061.89 483.80 1066.47 491.81 1071.30 499.67 C 1072.39 501.61 1074.00 503.76 1072.82 506.05 C 1064.86 532.21 1056.58 558.28 1048.56 584.42 C 1017.59 594.97 986.89 606.30 955.99 617.06 C 947.40 619.94 939.09 624.06 930.00 625.10 C 913.36 627.56 896.73 630.09 880.03 632.13 C 864.63 634.38 849.24 636.72 833.81 638.76 C 829.98 639.24 826.06 639.80 822.63 641.66 C 812.69 646.68 802.73 651.67 792.90 656.90 C 789.63 658.53 787.67 661.74 785.43 664.48 C 780.48 670.86 775.57 677.27 770.36 683.44 C 767.63 686.56 766.60 690.64 765.12 694.41 C 765.85 680.89 768.26 667.53 769.67 654.07 C 778.52 581.37 788.18 508.77 796.71 436.03 C 797.14 429.16 797.72 421.82 794.54 415.46 C 792.27 410.12 787.71 406.35 783.81 402.25 C 779.15 397.41 773.13 394.25 768.00 389.98 C 765.83 388.34 766.18 385.33 766.01 382.94 C 765.86 365.97 765.49 349.00 765.29 332.03 C 765.13 329.61 765.17 326.61 762.98 325.04 C 760.18 323.27 756.93 322.44 753.88 321.22 C 747.72 319.54 745.62 312.37 739.94 309.89 C 736.96 309.76 734.04 310.86 731.08 310.50 C 726.02 308.05 722.19 303.52 716.89 301.47 C 713.56 300.36 709.97 301.11 706.61 300.27 C 702.45 298.42 700.60 293.57 696.59 291.64 C 690.88 290.93 686.17 287.50 681.40 284.60 C 677.93 282.61 678.66 277.75 675.85 275.21 C 673.69 273.21 671.35 271.39 669.33 269.25 C 669.94 261.68 676.80 257.38 680.21 251.18 C 684.48 243.43 688.49 235.53 692.66 227.72 C 695.13 223.10 698.73 219.06 703.03 216.07 C 709.86 212.07 717.73 210.40 724.84 206.96 Z" />
<path fill="#6fa391" opacity="1.00" d=" M 303.48 214.34 C 308.16 211.67 313.76 211.73 318.95 210.92 C 323.87 210.09 329.17 210.96 333.44 213.56 C 337.99 217.45 340.52 223.12 344.67 227.38 C 345.78 228.32 347.33 229.20 348.83 228.71 C 353.83 227.30 358.79 225.44 364.02 225.04 C 368.53 225.18 372.52 227.87 377.04 228.10 C 379.81 228.23 382.93 228.97 385.47 227.51 C 387.19 225.41 387.67 222.58 389.25 220.38 C 391.22 218.39 393.64 216.92 395.97 215.39 C 396.61 222.37 394.04 230.49 398.66 236.52 C 404.71 242.95 414.83 243.96 423.05 242.14 C 424.50 242.51 425.95 242.90 427.41 243.30 C 428.70 244.75 429.58 247.62 432.03 246.97 C 434.78 246.23 437.22 244.62 439.99 243.94 C 442.73 245.13 445.03 247.28 448.03 247.89 C 452.79 249.28 458.20 249.38 462.12 252.78 C 466.01 255.86 470.92 258.14 473.39 262.64 C 475.30 268.12 475.89 273.98 477.71 279.49 C 479.15 283.98 485.37 283.91 487.26 287.97 C 486.13 290.48 483.71 291.97 481.82 293.85 C 477.78 297.48 476.91 303.14 475.09 307.99 C 474.00 307.20 472.93 306.38 471.78 305.69 C 464.24 305.57 456.80 309.11 449.26 307.64 C 445.52 305.37 441.96 302.76 437.73 301.42 C 436.51 299.61 435.69 296.79 432.96 297.10 C 432.80 298.48 432.59 299.86 432.35 301.24 C 429.99 300.40 427.65 298.88 425.08 299.11 C 422.75 300.13 420.79 301.79 418.76 303.29 C 419.25 299.18 415.11 297.45 413.93 294.03 C 412.28 289.69 405.75 293.43 403.57 289.50 C 400.63 286.19 400.60 281.36 397.99 277.92 C 394.73 275.94 391.71 279.80 388.74 280.82 C 385.52 282.95 382.48 279.71 379.60 278.54 C 376.19 276.46 372.69 279.16 369.63 280.57 C 366.69 282.25 363.36 282.98 360.26 284.26 C 358.71 284.86 358.06 286.45 359.08 287.87 C 361.21 288.35 363.49 287.69 365.57 288.49 C 369.49 294.18 363.94 301.62 367.62 307.40 C 369.49 310.55 373.53 310.71 376.48 312.33 C 378.22 316.32 372.44 319.55 373.44 323.81 C 374.67 327.59 376.56 331.13 377.61 334.99 C 378.76 334.35 379.94 333.75 381.15 333.20 C 383.45 334.43 385.88 335.50 387.95 337.13 C 389.00 338.74 389.59 340.62 390.72 342.19 C 392.72 344.57 395.75 346.03 397.20 348.88 C 398.75 351.96 399.14 355.47 400.55 358.61 C 401.98 359.69 404.04 359.51 405.69 360.24 C 405.63 364.83 404.27 369.33 404.53 373.94 C 404.48 377.77 405.32 381.69 404.49 385.47 C 403.53 388.28 400.16 387.11 397.95 387.40 C 395.56 387.02 394.25 389.42 392.57 390.63 C 390.63 392.67 387.55 391.92 385.06 392.55 C 383.23 392.77 382.54 394.80 381.35 395.97 C 379.06 393.01 377.83 389.36 375.32 386.58 C 376.21 385.99 377.27 385.66 378.08 384.94 C 379.45 381.42 378.55 377.61 378.18 374.00 C 378.10 371.05 375.59 369.20 373.92 367.09 C 372.13 365.25 371.70 362.65 370.95 360.32 C 368.01 355.39 365.06 350.48 360.84 346.52 C 360.12 346.73 358.68 347.15 357.96 347.36 C 357.24 345.86 356.54 344.36 355.84 342.86 C 356.56 340.98 358.03 339.10 357.35 336.99 C 356.65 333.79 352.78 334.04 350.49 332.61 C 348.83 329.83 347.75 326.74 346.09 323.95 C 342.98 318.64 341.57 312.28 337.11 307.81 C 334.47 305.30 332.94 301.97 331.66 298.62 C 328.32 295.75 325.40 292.43 323.02 288.74 C 323.19 288.07 323.52 286.74 323.68 286.08 C 321.11 282.40 317.64 279.51 314.80 276.06 C 312.03 272.79 311.99 268.19 309.53 264.74 C 306.60 260.31 304.24 255.40 300.27 251.77 C 300.64 251.31 301.38 250.38 301.75 249.92 C 299.13 248.69 296.59 247.26 293.85 246.36 C 291.88 246.17 290.04 247.15 288.18 247.64 C 287.83 247.27 287.12 246.54 286.76 246.18 C 285.54 246.33 284.32 246.50 283.11 246.67 C 281.91 246.12 280.71 245.57 279.53 245.01 C 280.82 240.06 283.03 235.44 284.65 230.61 C 285.58 227.85 284.42 224.93 284.88 222.12 C 285.37 219.66 286.12 217.25 287.07 214.93 C 292.52 213.54 298.58 217.96 303.48 214.34 Z" />
<path fill="#6fa391" opacity="1.00" d=" M 510.03 219.94 C 517.80 218.82 525.22 215.78 533.06 215.11 C 537.51 215.73 541.50 218.15 545.98 218.67 C 549.93 218.65 553.72 216.55 557.72 217.32 C 561.49 218.05 565.23 218.98 568.95 219.95 C 574.86 220.99 576.27 228.54 581.97 230.00 C 586.24 231.41 590.01 228.05 593.84 226.67 C 594.45 229.59 594.23 233.23 596.82 235.28 C 599.31 237.55 602.89 236.05 605.86 236.77 C 608.38 237.51 610.71 238.74 613.13 239.77 C 616.28 238.24 619.29 236.43 622.28 234.57 C 625.60 238.85 628.11 243.70 630.45 248.58 C 632.39 252.73 633.04 258.06 637.36 260.57 C 641.94 262.88 647.36 262.10 652.14 263.78 C 656.16 265.45 659.09 268.83 662.01 271.93 C 658.26 274.36 655.28 278.28 655.54 282.95 C 655.87 286.37 652.84 288.57 651.04 291.07 C 648.10 290.70 645.09 290.60 642.25 289.78 C 637.94 287.68 635.21 283.52 631.40 280.76 C 628.36 278.84 625.13 281.29 622.38 282.54 C 617.29 285.41 611.61 287.33 607.06 291.06 C 603.54 293.74 603.39 299.49 598.71 300.77 C 590.39 303.65 583.65 309.42 577.09 315.08 C 574.38 317.52 572.30 320.56 570.63 323.78 C 569.76 326.47 566.46 325.60 564.33 326.36 C 560.86 329.75 561.81 334.93 562.48 339.22 C 559.53 338.71 555.39 335.98 553.24 339.36 C 551.08 342.35 553.89 345.57 554.96 348.38 C 547.52 348.97 541.56 353.89 534.40 355.56 C 527.68 354.49 520.84 352.74 514.01 353.79 C 509.72 354.34 508.15 358.91 504.96 361.14 C 501.77 362.21 498.31 361.14 495.09 361.99 C 491.64 362.90 488.44 364.53 484.97 365.35 C 482.79 366.04 480.56 364.12 480.40 361.98 C 480.14 358.32 480.71 354.67 480.58 351.01 C 480.43 347.25 479.07 343.67 478.78 339.94 C 478.72 334.44 480.98 329.10 480.52 323.61 C 479.49 321.15 476.30 322.23 474.26 321.53 C 474.11 317.63 477.22 314.07 476.01 309.96 C 478.52 304.63 479.13 298.01 484.11 294.21 C 486.21 292.14 489.92 289.86 488.67 286.40 C 486.43 283.45 482.32 282.80 479.92 280.03 C 477.35 274.03 477.18 267.25 474.69 261.22 C 471.89 256.72 466.88 254.36 462.86 251.14 C 457.71 246.85 450.58 247.29 444.55 245.06 C 448.48 239.56 455.09 237.60 460.87 234.74 C 463.20 233.63 465.63 232.75 468.09 231.97 C 474.28 230.09 479.37 225.91 485.15 223.16 C 489.09 221.33 493.08 219.61 497.15 218.08 C 501.58 215.95 505.51 220.79 510.03 219.94 Z" />
<path fill="#6fa391" opacity="1.00" d=" M 278.03 246.15 C 278.61 246.71 278.61 246.71 278.03 246.15 Z" />
<path fill="#6fa391" opacity="1.00" d=" M 660.91 274.94 C 663.13 272.56 665.38 276.73 667.93 275.98 C 669.11 275.28 670.18 274.41 671.31 273.61 C 672.90 274.96 674.97 276.04 675.75 278.10 C 677.00 280.73 677.28 284.13 679.94 285.83 C 685.06 289.19 690.36 292.56 696.54 293.48 C 699.66 296.00 701.68 299.81 705.36 301.66 C 709.62 303.42 714.72 301.66 718.71 304.28 C 722.73 306.57 726.03 309.97 730.19 312.03 C 733.36 312.85 736.67 311.43 739.92 311.87 C 743.41 314.04 745.72 317.55 748.55 320.44 C 752.73 323.77 758.86 323.72 762.79 327.37 C 763.91 331.57 763.42 335.99 763.65 340.29 C 764.20 354.88 763.94 369.47 764.21 384.06 C 764.32 386.36 764.34 389.06 766.22 390.72 C 771.24 395.14 777.34 398.22 782.05 403.03 C 786.18 407.26 791.01 411.18 793.25 416.85 C 796.10 422.80 795.11 429.58 794.95 435.94 C 788.29 491.69 781.41 547.41 774.12 603.07 C 768.26 604.95 762.08 605.13 756.03 605.84 C 732.44 608.36 708.84 610.80 685.26 613.35 C 681.19 613.75 677.09 613.73 673.02 613.42 C 667.25 612.83 662.34 609.48 657.54 606.52 C 651.78 603.13 647.45 597.94 642.37 593.69 C 637.74 589.99 634.89 584.70 631.78 579.77 C 630.89 574.80 633.79 570.10 635.95 565.79 C 637.64 563.12 635.39 560.34 633.67 558.37 C 630.44 554.84 628.15 550.52 624.48 547.39 C 619.18 542.88 616.09 536.51 612.07 530.95 C 610.03 528.62 611.42 525.57 611.96 522.95 C 613.11 519.41 612.45 515.69 612.10 512.08 C 613.39 509.86 615.34 507.74 615.30 505.02 C 615.18 500.27 613.88 495.65 613.73 490.90 C 613.65 488.02 614.39 485.21 614.49 482.35 C 609.98 478.16 603.25 480.51 597.88 481.33 C 594.81 478.15 595.96 473.82 596.36 469.91 C 596.59 467.32 593.84 465.87 591.68 465.41 C 586.55 464.54 581.31 464.79 576.13 464.48 C 574.67 464.38 573.06 463.97 572.20 462.70 C 567.14 454.30 565.89 444.41 562.46 435.35 C 561.71 432.89 559.34 431.58 557.74 429.74 C 556.83 421.20 559.01 412.64 558.42 404.12 C 562.42 399.80 561.32 392.34 566.92 389.37 C 571.22 390.80 575.37 392.96 580.00 393.08 C 585.44 393.92 591.00 391.87 596.33 393.70 C 598.04 392.75 600.25 391.98 600.86 389.88 C 602.13 386.82 598.42 383.48 600.64 380.69 C 602.62 377.72 604.93 374.89 607.82 372.76 C 612.43 370.44 617.91 370.71 622.56 368.45 C 626.58 365.93 630.28 362.76 632.35 358.40 C 633.91 355.00 638.01 355.67 641.02 356.05 C 647.69 357.24 654.40 355.57 661.11 356.09 C 662.75 351.39 661.84 346.40 659.66 342.05 C 659.64 340.42 660.03 338.74 659.59 337.16 C 656.42 331.59 652.65 326.38 648.52 321.51 C 648.43 317.53 649.10 313.58 649.17 309.61 C 654.98 308.92 655.78 301.90 660.70 299.76 C 662.94 298.41 666.67 297.41 666.04 294.01 C 666.00 289.01 660.90 286.80 657.57 284.10 C 656.11 280.84 658.70 277.23 660.91 274.94 Z" />
<path fill="#6fa391" opacity="1.00" d=" M 386.97 283.31 C 390.55 282.42 393.58 280.16 396.87 278.58 C 398.54 282.91 399.56 287.69 402.72 291.26 C 405.03 294.00 409.01 293.43 412.19 293.96 C 412.52 295.16 412.86 296.37 413.20 297.58 C 414.30 298.42 415.40 299.25 416.51 300.10 C 416.73 301.59 416.80 303.14 417.33 304.58 C 420.77 305.84 422.83 301.16 426.03 300.98 C 428.37 301.38 430.49 302.77 432.88 302.83 C 434.86 302.75 434.04 300.07 434.43 298.82 C 435.13 301.15 436.46 303.28 438.99 303.85 C 443.63 305.16 446.87 309.86 451.94 309.75 C 458.69 309.81 465.23 307.59 471.98 307.63 C 473.71 309.53 475.15 312.31 474.08 314.89 C 473.53 317.12 471.81 319.26 472.28 321.63 C 473.50 324.29 476.78 323.71 479.15 324.06 C 478.52 328.70 477.60 333.31 477.10 337.98 C 476.46 343.45 479.60 348.55 478.90 354.05 C 478.92 358.02 477.24 363.18 480.86 366.10 C 484.61 368.44 488.90 365.74 492.62 364.66 C 496.76 362.91 501.38 363.94 505.62 362.69 C 508.29 361.03 509.84 358.13 512.30 356.21 C 515.03 355.10 518.08 355.40 520.97 355.45 C 528.51 356.02 535.94 357.73 543.11 360.09 C 543.39 365.03 542.40 369.99 543.01 374.90 C 544.31 378.57 548.90 378.71 552.01 380.01 C 553.15 383.36 553.90 386.83 554.93 390.23 C 555.68 393.14 558.56 394.65 560.25 396.96 C 559.65 399.85 556.81 401.87 556.83 404.90 C 556.94 410.59 555.80 416.21 555.88 421.91 C 552.63 421.41 547.86 420.34 546.23 424.18 C 546.33 427.09 547.83 429.97 547.10 432.88 C 545.94 436.78 541.55 437.68 538.36 439.33 C 534.99 441.06 530.85 442.48 529.06 446.10 C 528.80 449.88 533.85 450.91 536.20 453.06 C 531.97 454.97 527.61 456.92 524.57 460.59 C 519.53 466.25 511.99 469.33 508.02 475.99 C 507.31 477.01 506.59 478.04 505.88 479.07 C 503.01 478.26 500.14 476.80 497.10 477.19 C 494.39 478.33 492.44 480.68 489.89 482.10 C 488.22 482.24 486.54 482.10 484.88 482.06 C 485.06 479.23 486.38 476.07 484.76 473.44 C 483.26 471.02 480.27 470.43 477.82 469.44 C 479.21 465.52 482.09 461.15 480.02 456.97 C 479.05 454.60 476.19 454.93 474.16 455.34 C 470.16 456.21 466.32 457.68 462.33 458.58 C 461.64 457.02 461.14 455.37 460.11 454.00 C 457.42 453.91 454.81 454.63 452.15 454.82 C 447.81 451.56 444.79 446.90 440.98 443.09 C 437.65 443.09 434.40 443.87 431.11 444.17 C 430.46 442.33 429.73 440.53 429.01 438.72 C 423.82 437.14 425.19 430.52 421.51 427.51 C 418.35 424.24 414.27 422.11 410.88 419.11 C 409.17 417.53 406.99 416.67 404.91 415.72 C 405.18 415.30 405.72 414.47 405.98 414.06 C 405.03 413.04 404.08 412.01 403.15 410.98 C 402.45 412.00 401.75 413.02 401.05 414.04 C 398.28 411.57 395.43 409.16 392.10 407.49 C 391.57 408.23 391.05 408.97 390.53 409.72 C 389.51 409.28 388.50 408.85 387.48 408.43 C 386.70 407.43 385.91 406.43 385.13 405.44 C 385.49 404.63 385.86 403.83 386.24 403.04 C 385.21 401.50 384.20 399.95 383.19 398.41 C 383.69 396.94 384.23 395.48 384.82 394.05 C 387.18 393.85 389.66 394.13 391.91 393.23 C 393.79 392.14 395.16 390.40 396.93 389.16 C 399.71 388.69 403.45 390.17 405.38 387.41 C 407.87 384.12 406.22 379.68 406.35 375.91 C 405.66 370.71 407.39 365.64 407.46 360.48 C 407.04 357.81 403.92 357.97 401.91 357.45 C 400.94 354.33 400.21 351.11 398.79 348.15 C 397.52 345.54 394.91 344.04 392.94 342.03 C 391.10 340.35 390.89 337.58 389.17 335.84 C 386.63 333.93 383.74 332.57 380.96 331.06 C 380.40 331.45 379.29 332.24 378.73 332.63 C 377.69 329.34 376.03 326.29 374.94 323.02 C 375.52 319.45 378.91 316.75 378.84 313.06 C 377.54 308.77 371.54 309.98 369.21 306.61 C 367.08 303.84 368.29 300.19 368.59 297.05 C 369.07 293.57 369.16 289.23 366.20 286.78 C 364.45 285.23 362.05 286.54 360.18 287.01 C 360.93 285.10 363.27 285.17 364.90 284.49 C 368.82 283.42 372.15 280.87 376.05 279.77 C 380.04 279.51 382.89 283.65 386.97 283.31 Z" />
<path fill="#6fa391" opacity="1.00" d=" M 621.68 284.77 C 624.28 283.51 626.91 281.70 629.94 281.95 C 633.35 284.14 635.73 287.57 639.04 289.92 C 641.81 292.37 645.73 292.11 649.17 292.71 C 653.24 293.56 654.70 288.42 657.18 286.18 C 660.72 288.08 665.28 291.12 664.18 295.82 C 661.89 297.33 659.16 298.19 657.17 300.14 C 655.18 302.15 653.66 304.55 651.89 306.74 C 650.31 307.59 647.32 307.72 647.32 310.07 C 647.23 314.02 646.57 317.97 646.77 321.93 C 648.13 324.53 650.56 326.36 652.16 328.80 C 654.18 331.79 656.03 334.89 658.02 337.90 C 657.02 343.61 661.30 348.57 660.24 354.36 C 654.07 354.02 647.88 355.50 641.76 354.32 C 639.06 354.01 636.04 353.12 633.56 354.68 C 630.42 356.56 629.72 360.59 627.02 362.91 C 624.38 365.15 621.61 367.57 618.09 368.19 C 613.43 369.59 607.78 369.36 604.31 373.28 C 602.01 375.68 599.86 378.29 598.29 381.23 C 597.15 383.15 598.74 385.17 599.12 387.07 C 600.12 389.34 597.68 392.37 595.22 391.46 C 589.80 390.44 584.36 392.22 578.95 391.33 C 574.68 390.99 571.02 388.60 567.00 387.43 C 563.66 388.35 562.24 391.88 560.30 394.39 C 554.95 390.88 556.21 383.73 553.08 378.87 C 550.65 377.42 547.74 377.06 545.31 375.62 C 542.98 370.58 546.29 364.73 544.39 359.60 C 542.52 357.34 539.27 357.22 536.66 356.39 C 540.78 355.88 544.39 353.85 547.98 351.94 C 550.40 350.60 553.52 351.26 555.83 349.74 C 557.80 347.16 554.57 344.40 553.76 341.95 C 554.44 341.05 555.12 340.15 555.81 339.26 C 558.49 340.17 561.29 341.19 564.13 340.31 C 563.83 336.20 563.08 331.95 564.83 328.05 C 567.00 327.71 569.17 327.32 571.31 326.80 C 573.07 321.87 576.44 317.71 580.50 314.49 C 585.58 310.47 590.46 305.94 596.62 303.62 C 599.18 302.33 602.51 301.71 603.93 298.94 C 605.38 296.44 606.46 293.56 608.92 291.85 C 612.90 289.03 617.44 287.15 621.68 284.77 Z" />
<path fill="#6fa391" opacity="1.00" d=" M 548.06 424.04 C 550.38 422.60 553.22 423.57 555.78 423.61 C 555.83 425.99 555.34 428.50 556.15 430.80 C 557.62 432.63 560.00 433.77 560.82 436.08 C 564.34 445.12 565.41 455.08 570.58 463.46 C 571.39 464.65 572.68 465.51 574.09 465.84 C 580.94 467.09 588.56 465.19 594.85 468.86 C 594.32 472.87 592.43 477.98 595.80 481.23 C 598.03 483.60 601.39 482.58 604.14 481.97 C 607.06 481.06 610.01 482.10 612.86 482.78 C 610.95 489.51 612.63 496.36 613.45 503.11 C 614.48 507.17 609.95 509.98 610.60 514.00 C 610.72 517.02 610.96 520.10 610.10 523.05 C 609.58 525.59 608.35 528.51 610.09 530.88 C 612.99 535.58 616.27 540.05 619.33 544.67 C 615.79 546.21 612.42 548.09 609.09 550.03 C 603.51 547.86 597.88 550.39 592.42 551.62 C 589.27 553.76 586.27 556.16 582.79 557.79 C 576.52 560.91 573.14 568.50 566.05 570.05 C 561.34 567.12 561.73 559.99 556.91 557.08 C 554.45 555.10 552.04 558.09 549.62 558.68 C 546.12 559.43 542.53 559.77 539.03 560.58 C 536.31 559.23 536.79 554.63 533.68 553.46 C 531.23 552.19 528.26 553.97 527.51 556.44 C 526.62 559.75 529.21 563.25 527.48 566.42 C 526.21 569.07 525.14 571.92 523.22 574.18 C 520.28 575.33 516.71 575.05 514.33 577.40 C 512.84 578.91 510.55 580.50 511.10 582.93 C 512.67 584.39 514.83 584.99 516.52 586.30 C 517.23 591.57 516.61 597.03 517.68 602.30 C 520.17 604.82 523.32 606.69 525.54 609.55 C 527.71 612.36 533.04 611.48 533.90 607.94 C 535.20 603.41 536.36 598.80 538.70 594.66 C 542.52 594.72 546.18 593.61 549.90 592.96 C 552.62 595.07 550.67 598.52 550.43 601.28 C 549.69 604.03 551.50 606.47 552.14 609.04 C 552.00 611.23 550.95 613.23 550.20 615.26 C 547.51 615.19 544.79 614.79 542.13 615.21 C 540.30 615.91 538.72 617.08 537.06 618.09 C 535.97 617.59 534.87 617.10 533.79 616.61 C 533.38 621.45 532.57 626.45 533.75 631.24 C 535.51 636.78 543.09 632.35 546.18 635.99 C 548.12 640.64 550.42 645.94 548.25 650.92 C 547.59 654.40 544.20 655.98 541.68 657.97 C 539.48 654.97 537.40 651.75 536.88 648.00 C 536.38 644.41 533.62 641.48 530.26 640.33 C 529.55 639.09 528.85 637.86 528.15 636.64 C 528.67 634.73 529.18 632.81 529.69 630.91 C 528.62 630.39 527.55 629.88 526.48 629.38 C 526.23 628.80 525.71 627.64 525.46 627.06 C 525.98 625.17 526.57 623.29 526.76 621.34 C 525.47 620.71 524.14 620.15 522.85 619.58 C 522.15 616.69 521.34 613.79 519.47 611.42 C 517.99 609.62 518.50 607.18 518.12 605.06 C 516.89 603.40 514.58 603.00 513.02 601.70 C 512.30 599.14 512.84 596.13 510.98 593.99 C 509.93 592.18 507.56 592.54 505.83 592.05 C 504.35 589.90 503.05 587.63 501.56 585.50 C 498.21 581.96 492.90 580.84 490.28 576.53 C 489.78 576.33 488.79 575.94 488.29 575.74 C 486.28 573.71 483.92 571.51 480.83 572.68 C 477.75 571.97 474.57 571.10 472.24 568.85 C 467.77 565.61 466.31 560.05 463.13 555.78 C 463.24 555.41 463.44 554.67 463.55 554.30 C 463.23 553.98 462.58 553.35 462.26 553.04 C 461.40 551.26 459.90 550.01 458.23 549.06 C 458.12 548.63 457.89 547.78 457.77 547.36 C 454.55 545.72 453.50 542.10 451.50 539.36 C 450.67 538.34 450.67 537.01 450.55 535.79 C 449.67 534.45 448.74 533.14 447.83 531.84 C 449.07 530.05 451.50 528.48 450.83 526.00 C 450.77 523.77 449.73 521.73 447.84 520.50 C 447.83 518.04 447.95 515.59 448.29 513.16 C 444.30 512.04 443.25 507.52 441.70 504.22 C 442.41 504.13 443.82 503.94 444.52 503.85 C 445.56 500.93 446.09 497.87 445.71 494.79 C 446.99 492.00 449.07 489.50 449.70 486.46 C 449.15 486.07 448.05 485.30 447.49 484.92 C 447.84 480.84 446.05 477.22 443.94 473.88 C 444.16 473.47 444.59 472.65 444.80 472.24 C 443.67 469.99 442.75 467.66 441.61 465.43 C 440.64 463.35 438.28 462.62 436.48 461.46 C 436.64 459.38 437.61 456.95 435.76 455.36 C 433.31 452.66 432.05 449.24 431.18 445.76 C 434.17 445.44 437.15 445.03 440.14 444.68 C 443.13 448.37 446.29 451.96 449.77 455.21 C 452.34 457.66 456.11 455.88 459.17 455.72 C 459.96 457.24 459.81 459.73 461.83 460.22 C 467.47 459.61 472.64 456.76 478.40 456.72 C 479.85 461.08 477.43 465.02 476.27 469.08 C 476.89 472.71 482.77 471.59 483.67 475.26 C 483.79 477.63 483.19 480.02 483.52 482.39 C 485.09 484.29 487.87 484.14 490.10 483.91 C 492.35 483.10 493.96 481.19 495.92 479.88 C 498.30 477.65 501.42 479.95 504.12 480.22 C 506.84 481.53 508.47 478.53 509.73 476.66 C 512.63 471.64 518.00 469.01 522.15 465.21 C 525.63 462.25 528.34 458.11 532.90 456.68 C 534.88 455.90 537.93 454.83 537.26 452.09 C 535.62 449.61 532.45 448.67 530.11 446.94 C 534.52 441.80 541.59 440.77 546.75 436.78 C 550.57 433.43 548.65 428.28 548.06 424.04 Z" />
<path fill="#6fa391" opacity="1.00" d=" M 609.55 551.58 C 613.36 550.08 616.72 547.60 620.61 546.22 C 626.04 550.60 629.76 556.55 634.13 561.91 C 635.54 563.61 634.20 565.72 633.28 567.29 C 630.90 571.06 629.54 575.58 629.81 580.04 C 632.00 583.80 634.58 587.35 637.04 590.95 C 641.82 595.82 647.02 600.28 652.01 604.94 C 651.90 606.88 651.97 608.86 651.57 610.78 C 650.12 613.09 646.33 613.74 646.03 616.86 C 646.21 621.36 648.79 626.11 646.42 630.43 C 643.89 633.83 639.20 633.81 635.79 635.85 C 633.91 638.01 633.14 640.98 630.94 642.89 C 626.79 646.73 622.23 650.38 619.31 655.30 C 617.96 657.41 619.23 659.86 619.51 662.11 C 620.77 667.37 618.39 672.62 619.11 677.91 C 619.41 680.45 619.42 683.02 619.17 685.57 C 615.78 683.89 612.02 682.64 608.29 683.99 C 606.89 682.04 605.70 679.80 603.55 678.59 C 599.38 676.59 598.06 671.67 594.24 669.17 C 594.20 666.85 593.53 663.09 590.31 664.18 C 584.17 666.17 583.91 673.21 581.60 678.18 C 578.22 675.53 575.94 671.91 573.47 668.49 C 570.79 667.70 567.92 668.21 565.20 667.67 C 563.25 666.32 562.65 663.64 560.68 662.31 C 558.77 661.98 556.82 661.99 554.90 661.89 C 555.29 658.93 555.97 655.98 555.80 652.99 C 554.85 650.76 552.02 651.28 550.09 650.92 C 552.03 645.38 549.88 639.55 547.38 634.59 C 544.52 631.44 539.69 633.44 536.15 631.92 C 533.93 628.29 535.31 623.70 534.98 619.67 C 538.77 620.53 541.17 616.31 544.92 616.91 C 547.15 616.64 550.02 617.67 551.71 615.71 C 553.56 612.92 554.75 609.17 552.98 606.06 C 550.77 602.23 553.72 598.02 552.80 594.03 C 552.22 591.77 549.71 591.30 547.85 590.58 C 549.43 587.54 550.71 584.34 551.22 580.94 C 551.48 575.98 558.09 575.49 559.37 571.03 C 559.26 569.42 558.18 568.11 557.54 566.70 C 557.85 565.05 558.18 563.41 558.51 561.78 C 560.85 565.24 561.80 571.54 566.86 571.75 C 573.97 569.76 577.59 562.38 584.02 559.14 C 588.63 556.97 592.17 552.65 597.53 552.27 C 601.43 550.68 605.49 550.97 609.55 551.58 Z" />
<path fill="#6fa391" opacity="1.00" d=" M 529.29 559.95 C 527.91 557.15 530.65 553.43 533.67 555.33 C 535.25 557.61 535.68 560.77 538.05 562.44 C 541.39 561.88 544.70 561.13 548.08 560.78 C 550.79 560.57 552.93 558.52 555.59 558.15 C 558.38 559.52 556.14 562.75 556.11 565.01 C 555.36 567.25 556.91 569.20 557.77 571.13 C 555.40 573.36 552.50 575.00 550.34 577.45 C 548.93 582.45 548.16 587.84 544.86 592.07 C 542.66 592.63 540.36 592.60 538.18 593.17 C 534.20 597.00 533.90 602.97 532.01 607.88 C 531.01 610.14 527.45 609.62 526.25 607.77 C 524.25 605.38 521.73 603.56 519.31 601.65 C 518.41 596.65 518.90 591.53 518.54 586.49 C 517.75 583.85 514.65 583.37 512.55 582.20 C 513.71 580.80 514.81 579.34 516.19 578.15 C 518.88 576.50 522.51 576.96 525.03 575.01 C 527.54 570.40 531.29 565.45 529.29 559.95 Z" />
<path fill="#6fa391" opacity="1.00" d=" M 759.92 607.11 C 764.67 606.69 769.41 606.08 774.07 605.02 C 769.76 636.90 766.30 668.90 762.05 700.79 C 758.98 702.50 756.12 704.61 752.86 705.94 C 750.73 706.39 748.53 706.18 746.38 706.18 C 743.18 701.58 740.23 696.74 736.15 692.85 C 729.45 693.77 722.72 695.43 715.92 694.55 C 706.92 693.65 697.90 692.90 688.93 691.71 C 684.25 691.20 680.91 686.77 676.05 687.02 C 668.66 687.17 661.23 686.35 653.90 687.56 C 648.65 687.49 643.43 688.11 638.19 688.14 C 637.55 688.76 636.91 689.40 636.29 690.04 C 633.66 688.90 631.58 690.13 629.85 692.07 C 629.82 691.59 629.77 690.62 629.74 690.13 C 626.30 690.26 622.40 690.61 620.27 687.32 C 620.82 684.59 621.45 681.82 621.01 679.03 C 620.40 674.94 621.17 670.85 621.67 666.80 C 622.14 663.48 620.63 660.35 620.47 657.08 C 623.36 651.40 628.84 647.64 633.17 643.12 C 634.78 641.31 635.63 638.98 637.14 637.11 C 640.88 635.32 645.84 635.02 648.08 631.01 C 650.69 626.30 647.58 621.06 648.05 616.16 C 649.51 614.83 651.25 613.86 652.70 612.52 C 653.92 610.70 653.56 608.31 653.93 606.25 C 659.55 609.75 665.06 614.25 671.90 614.90 C 675.90 615.23 679.93 615.87 683.96 615.41 C 709.27 612.60 734.60 609.89 759.92 607.11 Z" />
<path fill="#6fa391" opacity="1.00" d=" M 549.79 653.23 C 551.25 653.12 552.71 653.03 554.19 652.97 C 553.92 656.12 553.14 659.31 553.62 662.48 C 554.68 664.30 557.21 663.48 558.94 664.05 C 562.13 664.12 561.80 669.37 565.11 669.33 C 567.86 669.99 571.84 668.40 573.46 671.45 C 575.69 674.57 577.89 678.97 582.17 679.32 C 586.05 676.96 584.42 670.83 587.83 667.87 C 589.02 666.95 590.35 666.26 591.66 665.53 C 592.09 667.76 592.32 670.27 594.36 671.71 C 597.35 674.13 598.58 678.27 602.26 679.89 C 604.57 680.94 605.71 683.30 607.05 685.32 C 604.56 687.22 602.25 689.36 600.24 691.77 C 601.49 692.45 602.75 693.13 604.03 693.79 C 600.77 694.84 599.72 697.88 599.17 700.93 C 599.14 704.62 598.41 708.42 599.96 711.92 C 600.44 712.14 601.41 712.58 601.89 712.80 C 601.60 714.24 601.22 715.67 600.66 717.04 C 600.01 716.99 598.70 716.87 598.05 716.82 C 597.34 718.79 597.03 721.00 595.77 722.72 C 594.33 723.79 592.62 724.39 591.00 725.13 C 590.90 725.72 590.69 726.91 590.59 727.51 C 590.06 727.77 588.99 728.28 588.46 728.54 C 587.51 724.95 584.76 721.77 585.98 717.86 C 584.75 714.41 582.40 711.52 579.15 709.80 C 579.03 707.24 578.81 704.64 577.44 702.41 C 576.75 702.43 575.37 702.46 574.69 702.47 C 574.30 701.01 573.92 699.55 573.56 698.11 C 572.60 697.51 571.65 696.93 570.71 696.36 C 570.33 693.21 570.02 690.05 569.84 686.89 C 566.81 684.32 563.82 681.67 561.22 678.66 C 557.70 675.84 554.44 672.65 550.43 670.54 C 546.33 668.57 545.47 663.67 542.62 660.48 C 544.59 657.67 547.54 655.79 549.79 653.23 Z" />
<path fill="#6fa391" opacity="1.00" d=" M 553.24 709.24 C 556.58 709.50 551.57 712.16 553.24 709.24 Z" />
<path fill="#6fa391" opacity="1.00" d=" M 562.02 717.36 C 560.76 716.01 559.67 714.50 559.08 712.75 C 560.63 714.19 562.10 715.74 563.47 717.38 C 563.30 718.36 563.19 719.35 563.15 720.36 C 562.82 719.34 562.42 718.33 562.02 717.36 Z" />
<path fill="#6fa391" opacity="1.00" d=" M 555.47 716.16 C 556.62 715.23 557.26 715.49 557.41 716.92 C 556.24 717.83 555.59 717.58 555.47 716.16 Z" />
<path fill="#6fa391" opacity="1.00" d=" M 1353.38 756.91 C 1356.14 756.89 1358.91 756.88 1361.69 756.92 C 1360.27 758.40 1358.85 759.88 1357.45 761.37 C 1356.08 759.88 1354.71 758.40 1353.38 756.91 Z" />
</g>
</svg>
