<?xml version="1.0" encoding="UTF-8" ?>
<!DOCTYPE svg PUBLIC "-//W3C//DTD SVG 1.1//EN" "http://www.w3.org/Graphics/SVG/1.1/DTD/svg11.dtd">
<svg width="252pt" height="252pt" viewBox="0 0 1250 1250" version="1.1" xmlns="http://www.w3.org/2000/svg">
<g id="#7ccfc7ff">
<path fill="#7ccfc7" opacity="1.00" d=" M 103.98 0.00 L 121.98 0.00 C 128.16 19.23 134.11 38.53 140.26 57.76 C 141.51 61.55 141.83 66.66 138.16 69.24 C 133.80 73.02 126.24 70.72 124.63 65.20 C 117.61 43.51 111.00 21.69 103.98 0.00 Z" />
<path fill="#7ccfc7" opacity="1.00" d=" M 657.33 0.00 L 678.43 0.00 C 666.13 17.19 653.89 34.44 641.73 51.73 C 639.50 54.80 637.44 58.64 633.49 59.68 C 628.58 61.18 623.06 57.08 622.85 52.01 C 622.49 49.21 624.06 46.74 625.61 44.58 C 636.23 29.76 646.65 14.79 657.33 0.00 Z" />
<path fill="#7ccfc7" opacity="1.00" d=" M 1069.10 0.00 L 1090.21 0.00 C 1077.23 18.09 1064.40 36.29 1051.56 54.49 C 1049.60 57.81 1046.05 60.53 1042.00 59.86 C 1036.07 59.32 1032.40 51.71 1035.89 46.81 C 1046.90 31.17 1057.96 15.55 1069.10 0.00 Z" />
<path fill="#7ccfc7" opacity="1.00" d=" M 522.45 185.56 C 527.41 183.69 533.34 187.65 533.78 192.87 C 538.92 228.25 544.06 263.62 549.13 299.01 C 549.93 304.08 545.15 309.12 540.02 308.42 C 535.98 308.56 532.57 305.05 532.19 301.15 C 527.02 266.08 522.12 230.96 516.84 195.90 C 516.14 191.73 518.16 186.86 522.45 185.56 Z" />
<path fill="#7ccfc7" opacity="1.00" d=" M 934.34 185.57 C 938.98 183.80 944.69 187.21 945.39 192.12 C 950.57 227.73 955.75 263.34 960.85 298.96 C 961.56 303.57 957.75 308.63 952.90 308.41 C 948.52 308.91 944.23 305.42 943.88 301.03 C 938.80 266.00 933.73 230.96 928.66 195.92 C 927.69 191.66 930.02 186.84 934.34 185.57 Z" />
<path fill="#7ccfc7" opacity="1.00" d=" M 109.07 250.09 C 113.82 249.31 119.17 252.88 119.19 257.92 C 120.09 263.22 115.04 267.74 109.96 267.38 C 87.30 267.24 64.67 268.78 42.02 268.53 C 36.64 268.45 32.82 261.95 34.98 257.13 C 36.18 254.22 38.94 251.68 42.24 251.74 C 58.82 251.25 75.39 250.68 91.97 250.57 C 97.67 250.45 103.39 250.70 109.07 250.09 Z" />
<path fill="#7ccfc7" opacity="1.00" d=" M 124.52 318.68 C 128.46 316.13 133.97 317.99 136.16 321.97 C 143.02 334.44 149.51 347.11 156.36 359.58 C 157.59 361.86 158.94 364.31 158.61 367.00 C 158.38 372.51 151.83 376.50 146.82 374.24 C 144.28 373.17 142.71 370.75 141.48 368.41 C 134.76 355.50 127.68 342.78 120.99 329.85 C 118.79 325.98 120.75 320.76 124.52 318.68 Z" />
<path fill="#7ccfc7" opacity="1.00" d=" M 6.44 506.61 C 10.44 504.93 15.19 507.16 17.11 510.88 C 32.45 537.51 47.80 564.14 63.24 590.71 C 65.03 593.70 65.64 597.67 63.78 600.77 C 60.78 605.84 52.09 606.23 49.22 600.83 C 34.10 574.88 19.18 548.81 4.11 522.83 C 2.75 520.35 0.82 517.96 0.81 515.00 C 0.67 511.38 2.93 507.74 6.44 506.61 Z" />
<path fill="#7ccfc7" opacity="1.00" d=" M 592.44 658.60 C 597.51 656.40 604.20 660.38 604.25 666.03 C 604.65 669.34 602.32 672.05 600.13 674.21 C 580.55 693.27 561.13 712.49 541.43 731.43 C 538.20 734.83 532.08 734.56 529.12 730.94 C 526.07 727.58 526.44 721.85 529.83 718.86 C 549.21 699.54 569.15 680.79 588.47 661.42 C 589.68 660.33 590.96 659.28 592.44 658.60 Z" />
<path fill="#7ccfc7" opacity="1.00" d=" M 1004.42 658.59 C 1009.39 656.41 1015.95 660.41 1015.93 665.94 C 1016.32 668.93 1014.61 671.64 1012.56 673.64 C 992.78 692.82 973.18 712.18 953.40 731.34 C 951.42 733.23 948.61 734.36 945.87 733.71 C 940.46 733.09 937.10 726.35 939.56 721.58 C 940.51 719.91 941.89 718.56 943.21 717.19 C 961.02 700.02 978.61 682.62 996.35 665.39 C 998.88 662.96 1001.12 660.02 1004.42 658.59 Z" />
<path fill="#7ccfc7" opacity="1.00" d=" M 377.42 790.55 C 381.15 789.37 385.68 791.02 387.51 794.54 C 388.69 796.93 389.32 799.54 390.15 802.08 C 399.92 833.25 409.81 864.39 419.57 895.57 C 421.09 899.10 421.52 903.58 418.53 906.50 C 414.62 911.25 406.05 909.67 404.22 903.76 C 393.44 869.88 382.83 835.95 372.14 802.05 C 370.52 797.61 372.49 791.72 377.42 790.55 Z" />
<path fill="#7ccfc7" opacity="1.00" d=" M 124.42 804.53 C 129.04 803.00 134.82 806.09 135.48 811.06 C 136.06 813.68 135.08 816.33 133.54 818.44 C 115.68 843.62 97.80 868.79 79.98 893.99 C 77.81 897.43 73.16 899.17 69.35 897.54 C 64.47 895.65 62.12 888.80 65.55 884.61 C 83.31 859.35 101.30 834.25 119.07 809.00 C 120.44 807.09 122.08 805.18 124.42 804.53 Z" />
<path fill="#7ccfc7" opacity="1.00" d=" M 680.12 987.08 C 681.70 986.55 683.36 986.90 684.92 987.39 C 714.66 996.88 744.35 1006.51 774.08 1016.06 C 778.91 1017.39 781.95 1023.41 779.55 1027.97 C 777.87 1032.18 772.60 1033.92 768.51 1032.37 C 740.87 1023.41 713.20 1014.54 685.54 1005.65 C 681.56 1004.40 676.75 1003.46 674.59 999.46 C 671.68 994.81 675.10 988.39 680.12 987.08 Z" />
<path fill="#7ccfc7" opacity="1.00" d=" M 312.55 1070.69 C 317.72 1067.68 324.71 1072.19 324.94 1077.94 C 325.26 1081.42 322.70 1084.13 320.42 1086.39 C 302.24 1103.86 284.43 1121.72 266.25 1139.19 C 263.23 1142.18 259.90 1146.33 255.11 1145.52 C 248.20 1145.31 245.17 1135.51 250.08 1131.02 C 266.77 1114.42 283.84 1098.20 300.59 1081.64 C 304.68 1078.10 307.83 1073.45 312.55 1070.69 Z" />
<path fill="#7ccfc7" opacity="1.00" d=" M 96.87 1202.78 C 101.38 1200.30 107.57 1203.17 108.79 1208.12 C 113.29 1222.06 117.56 1236.07 122.09 1250.00 L 104.08 1250.00 C 100.14 1237.90 96.41 1225.73 92.56 1213.60 C 91.00 1209.56 92.91 1204.58 96.87 1202.78 Z" />
<path fill="#7ccfc7" opacity="1.00" d=" M 678.74 1219.74 C 680.52 1217.08 683.70 1215.36 686.94 1215.88 C 692.71 1216.61 696.73 1224.07 693.13 1229.01 C 688.25 1236.04 683.33 1243.06 678.31 1250.00 L 657.20 1250.00 C 664.49 1239.99 671.48 1229.76 678.74 1219.74 Z" />
<path fill="#7ccfc7" opacity="1.00" d=" M 1091.11 1218.99 C 1094.83 1213.84 1103.71 1215.50 1105.66 1221.44 C 1107.39 1225.44 1104.94 1229.44 1102.56 1232.55 C 1098.34 1238.32 1094.34 1244.25 1090.08 1250.00 L 1068.98 1250.00 C 1076.47 1239.75 1083.57 1229.21 1091.11 1218.99 Z" />
</g>
<g id="#fc657efe">
<path fill="#fc657e" opacity="1.00" d=" M 204.56 0.00 L 248.19 0.00 C 265.08 6.78 281.95 13.61 298.84 20.42 C 303.01 21.89 305.49 26.73 304.18 30.97 C 302.87 35.77 296.91 38.47 292.42 36.33 C 265.07 25.42 237.83 14.24 210.46 3.37 C 208.33 2.55 206.44 1.27 204.56 0.00 Z" />
<path fill="#fc657e" opacity="1.00" d=" M 1182.05 0.00 L 1209.52 0.00 C 1200.48 7.15 1191.57 14.46 1182.56 21.64 C 1179.81 24.09 1175.59 24.38 1172.42 22.64 C 1167.22 20.11 1166.91 11.72 1171.52 8.47 C 1175.01 5.63 1178.49 2.76 1182.05 0.00 Z" />
<path fill="#fc657e" opacity="1.00" d=" M 518.20 22.27 C 523.29 20.08 529.59 24.55 529.66 29.99 C 530.08 33.40 527.71 36.27 525.11 38.13 C 500.70 56.39 476.48 74.90 452.06 93.14 C 447.49 96.82 439.28 93.96 438.63 87.93 C 437.83 84.33 439.74 80.69 442.70 78.69 C 463.04 63.36 483.35 48.00 503.70 32.69 C 508.45 29.12 513.00 25.20 518.20 22.27 Z" />
<path fill="#fc657e" opacity="1.00" d=" M 929.39 22.55 C 934.88 19.47 942.11 24.98 941.43 31.00 C 941.36 33.71 939.64 36.00 937.59 37.59 C 913.47 55.82 889.28 73.98 865.20 92.26 C 863.38 93.62 861.31 94.89 858.96 94.77 C 854.22 95.10 849.90 90.69 850.25 85.97 C 850.08 82.62 852.59 80.03 855.10 78.19 C 873.46 64.48 891.71 50.62 910.01 36.83 C 916.55 32.18 922.58 26.80 929.39 22.55 Z" />
<path fill="#fc657e" opacity="1.00" d=" M 568.00 131.09 C 575.34 131.07 582.68 130.78 590.02 130.77 C 596.86 130.77 600.79 140.14 595.99 145.01 C 592.77 148.82 587.38 147.67 583.01 147.88 C 565.70 148.87 548.35 148.40 531.03 149.00 C 526.14 149.57 519.58 150.40 516.64 145.40 C 513.21 140.37 516.67 132.61 522.83 132.15 C 537.87 131.61 552.96 132.02 568.00 131.09 Z" />
<path fill="#fc657e" opacity="1.00" d=" M 960.42 131.72 C 974.29 131.46 988.16 130.75 1002.04 130.77 C 1007.43 130.85 1011.05 136.95 1009.48 141.89 C 1008.73 144.83 1006.14 147.14 1003.16 147.62 C 980.49 148.88 957.72 148.24 935.03 149.42 C 929.75 149.02 925.52 143.17 927.43 138.06 C 928.56 134.47 932.22 131.92 935.99 132.05 C 944.13 131.90 952.27 131.82 960.42 131.72 Z" />
<path fill="#fc657e" opacity="1.00" d=" M 436.20 178.23 C 440.69 176.34 446.49 178.14 448.40 182.80 C 450.63 187.40 447.43 193.19 442.61 194.37 C 417.05 200.88 391.50 207.38 365.96 213.95 C 363.40 214.54 360.68 214.91 358.12 214.20 C 352.96 212.32 351.19 204.89 354.81 200.82 C 356.94 198.05 360.61 197.57 363.76 196.73 C 387.91 190.58 412.08 184.49 436.20 178.23 Z" />
<path fill="#fc657e" opacity="1.00" d=" M 785.14 219.06 C 789.89 217.42 795.62 220.97 796.09 226.03 C 800.06 247.33 804.05 268.62 807.88 289.95 C 809.04 294.72 805.11 300.17 800.08 300.03 C 795.83 300.57 791.68 297.29 791.10 293.08 C 787.37 273.05 783.70 253.00 779.97 232.96 C 779.50 230.15 778.57 227.20 779.61 224.42 C 780.44 221.86 782.54 219.79 785.14 219.06 Z" />
<path fill="#fc657e" opacity="1.00" d=" M 1195.46 219.70 C 1200.31 216.66 1207.21 220.38 1207.87 225.91 C 1211.75 247.23 1215.78 268.53 1219.65 289.85 C 1220.86 294.55 1217.12 300.04 1212.13 300.00 C 1207.85 300.59 1203.51 297.50 1202.88 293.20 C 1198.91 272.11 1195.10 250.98 1191.14 229.89 C 1190.06 226.02 1191.78 221.49 1195.46 219.70 Z" />
<path fill="#fc657e" opacity="1.00" d=" M 277.39 264.39 C 282.04 261.79 288.39 265.05 289.50 270.12 C 290.48 273.90 288.47 278.14 284.95 279.81 C 263.18 290.34 241.44 300.94 219.71 311.54 C 217.08 312.74 213.91 312.86 211.27 311.65 C 206.60 309.18 205.35 301.90 209.20 298.18 C 211.48 295.92 214.58 294.86 217.41 293.47 C 237.44 283.86 257.34 273.97 277.39 264.39 Z" />
<path fill="#fc657e" opacity="1.00" d=" M 417.39 306.51 C 422.49 303.68 430.11 306.67 430.40 312.94 C 430.79 324.60 430.45 336.29 430.69 347.96 C 431.61 364.62 431.14 381.32 431.58 397.99 C 431.46 406.30 431.89 414.62 431.59 422.93 C 431.26 429.22 422.41 432.39 417.90 428.23 C 415.07 426.06 414.62 422.28 414.67 418.98 C 414.76 407.33 414.40 395.68 414.39 384.02 C 413.51 370.03 414.07 356.00 413.77 341.99 C 413.50 332.98 413.73 323.96 413.37 314.96 C 413.04 311.67 414.53 308.24 417.39 306.51 Z" />
<path fill="#fc657e" opacity="1.00" d=" M 829.38 306.41 C 834.40 303.49 841.98 307.04 842.18 313.04 C 842.66 346.02 843.08 379.01 843.47 412.00 C 843.52 415.97 844.06 420.00 843.27 423.93 C 842.08 429.07 835.43 431.66 830.93 429.10 C 827.98 427.61 826.54 424.23 826.49 421.06 C 826.10 387.40 825.71 353.75 825.15 320.09 C 824.79 315.35 824.55 309.07 829.38 306.41 Z" />
<path fill="#fc657e" opacity="1.00" d=" M 694.42 319.50 C 700.24 316.24 707.91 322.71 706.22 329.01 C 705.76 332.10 703.20 334.23 700.57 335.56 C 687.12 342.43 673.68 349.32 660.29 356.31 C 656.46 358.52 651.74 360.87 647.39 358.57 C 641.63 355.71 641.76 346.36 647.46 343.52 C 663.16 335.62 678.60 327.18 694.42 319.50 Z" />
<path fill="#fc657e" opacity="1.00" d=" M 1106.28 319.43 C 1111.39 316.78 1118.19 321.26 1118.07 326.94 C 1118.30 330.38 1116.18 333.73 1113.07 335.17 C 1098.16 342.89 1083.23 350.57 1068.31 358.27 C 1064.59 360.24 1059.27 360.00 1056.64 356.37 C 1053.28 352.41 1054.74 345.75 1059.43 343.52 C 1075.00 335.40 1090.62 327.36 1106.28 319.43 Z" />
<path fill="#fc657e" opacity="1.00" d=" M 1170.31 362.46 C 1173.13 361.46 1176.19 362.00 1179.11 362.21 C 1198.89 364.43 1218.68 366.71 1238.49 368.75 C 1244.58 369.74 1247.36 377.76 1243.62 382.49 C 1241.86 384.80 1238.88 386.17 1235.99 385.74 C 1214.95 383.45 1193.91 381.14 1172.89 378.75 C 1168.68 378.31 1165.06 374.33 1165.36 370.05 C 1165.32 366.82 1167.39 363.77 1170.31 362.46 Z" />
<path fill="#fc657e" opacity="1.00" d=" M 168.40 439.49 C 171.02 438.77 173.80 439.56 176.00 441.04 C 203.98 458.69 232.07 476.17 260.00 493.90 C 265.99 497.19 264.32 507.35 257.92 509.10 C 253.98 510.46 250.15 508.19 247.00 506.03 C 221.25 489.74 195.39 473.63 169.62 457.35 C 167.10 455.66 163.85 454.35 162.78 451.24 C 160.85 446.65 163.42 440.67 168.40 439.49 Z" />
<path fill="#fc657e" opacity="1.00" d=" M 636.21 491.15 C 639.88 489.32 644.70 490.67 647.03 494.01 C 670.05 525.98 693.05 557.97 716.10 589.93 C 718.49 592.90 718.67 597.45 716.32 600.50 C 713.65 604.47 707.46 605.15 703.89 602.04 C 702.20 600.37 700.98 598.32 699.58 596.43 C 677.36 565.64 655.21 534.82 633.02 504.02 C 629.86 499.96 631.51 493.25 636.21 491.15 Z" />
<path fill="#fc657e" opacity="1.00" d=" M 1047.43 491.47 C 1051.14 489.24 1056.45 490.36 1058.84 494.01 C 1081.13 525.07 1103.51 556.07 1125.85 587.11 C 1127.49 589.52 1129.81 591.88 1129.71 595.02 C 1129.85 598.96 1127.17 603.13 1123.15 603.85 C 1119.36 604.81 1115.56 602.61 1113.52 599.51 C 1090.72 567.63 1067.67 535.92 1044.88 504.03 C 1041.70 500.20 1043.08 493.80 1047.43 491.47 Z" />
<path fill="#fc657e" opacity="1.00" d=" M 420.66 541.85 C 426.40 542.01 433.58 539.03 438.19 543.74 C 442.97 548.26 439.66 557.75 433.00 558.01 C 412.32 559.85 391.61 561.33 370.93 563.13 C 365.44 564.03 360.53 558.36 361.57 553.07 C 362.05 548.96 366.00 545.94 370.03 545.92 C 386.91 544.65 403.79 543.32 420.66 541.85 Z" />
<path fill="#fc657e" opacity="1.00" d=" M 74.96 667.01 C 79.10 664.17 85.34 666.13 87.29 670.69 C 88.00 673.06 88.04 675.77 87.12 678.09 C 85.20 681.57 81.25 683.04 78.01 684.98 C 51.99 699.59 25.95 714.18 0.00 728.93 L 0.00 709.18 C 24.91 694.98 49.94 681.01 74.96 667.01 Z" />
<path fill="#fc657e" opacity="1.00" d=" M 215.36 667.40 C 219.16 665.45 224.09 667.00 226.36 670.54 C 241.48 691.49 256.53 712.48 271.66 733.42 C 274.57 737.15 274.02 743.33 270.03 746.08 C 266.32 748.72 260.58 747.81 258.05 743.97 C 242.68 722.66 227.32 701.35 212.00 680.00 C 208.86 675.96 210.70 669.37 215.36 667.40 Z" />
<path fill="#fc657e" opacity="1.00" d=" M 700.55 681.74 C 704.25 680.25 708.99 681.40 711.20 684.84 C 713.38 688.01 712.89 692.55 710.38 695.40 C 700.83 706.84 691.20 718.22 681.65 729.66 C 679.64 732.26 676.18 733.72 672.92 733.03 C 667.97 732.11 664.67 726.21 666.63 721.54 C 667.92 718.71 670.18 716.50 672.15 714.13 C 680.24 704.56 688.28 694.93 696.35 685.34 C 697.57 683.96 698.81 682.47 700.55 681.74 Z" />
<path fill="#fc657e" opacity="1.00" d=" M 1112.47 681.71 C 1117.15 679.60 1123.52 682.76 1124.20 687.98 C 1124.84 691.08 1123.40 694.13 1121.38 696.41 C 1111.70 707.72 1102.31 719.28 1092.56 730.53 C 1088.27 735.76 1078.75 732.55 1077.94 726.01 C 1077.01 721.54 1080.49 718.16 1083.13 715.10 C 1091.35 705.35 1099.56 695.58 1107.74 685.79 C 1109.10 684.22 1110.50 682.55 1112.47 681.71 Z" />
<path fill="#fc657e" opacity="1.00" d=" M 1208.47 732.50 C 1222.30 724.65 1236.23 716.99 1250.00 709.05 L 1250.00 728.80 C 1238.92 735.15 1227.76 741.39 1216.59 747.59 C 1211.67 750.47 1204.59 746.61 1204.21 740.97 C 1203.70 737.58 1205.46 734.10 1208.47 732.50 Z" />
<path fill="#fc657e" opacity="1.00" d=" M 261.15 799.08 C 265.81 797.71 271.33 801.05 271.97 805.93 C 272.56 809.13 271.07 812.43 268.50 814.36 C 250.55 828.78 232.57 843.19 214.68 857.70 C 211.62 860.40 207.63 863.31 203.34 861.52 C 197.08 859.82 195.66 850.52 200.77 846.78 C 217.51 833.19 234.39 819.74 251.17 806.18 C 254.44 803.75 257.25 800.49 261.15 799.08 Z" />
<path fill="#fc657e" opacity="1.00" d=" M 488.44 824.58 C 490.93 823.79 493.55 824.52 495.90 825.46 C 523.42 836.58 550.95 847.70 578.50 858.74 C 581.63 860.22 584.25 863.41 583.89 867.06 C 583.99 872.68 577.43 876.89 572.31 874.76 C 544.00 863.42 515.69 852.04 487.45 840.53 C 480.49 837.98 481.24 826.26 488.44 824.58 Z" />
<path fill="#fc657e" opacity="1.00" d=" M 900.44 824.53 C 903.02 823.78 905.69 824.63 908.10 825.59 C 935.70 836.82 963.40 847.81 990.98 859.08 C 996.98 861.69 997.16 871.39 991.27 874.25 C 987.54 876.41 983.34 874.62 979.79 873.05 C 952.99 862.21 926.15 851.48 899.38 840.58 C 892.14 837.97 892.97 826.17 900.44 824.53 Z" />
<path fill="#fc657e" opacity="1.00" d=" M 797.42 860.60 C 801.37 858.87 806.43 860.94 808.19 864.84 C 809.97 868.44 808.80 873.21 805.52 875.55 C 780.82 894.16 756.16 912.85 731.42 931.41 C 727.22 934.70 720.17 932.75 718.45 927.64 C 716.89 923.78 718.45 919.13 722.02 917.00 C 740.23 903.22 758.47 889.47 776.72 875.73 C 783.65 870.74 790.08 864.99 797.42 860.60 Z" />
<path fill="#fc657e" opacity="1.00" d=" M 1209.38 860.50 C 1214.02 858.64 1219.81 861.95 1220.69 866.85 C 1221.47 870.28 1219.68 873.83 1216.93 875.85 C 1193.57 893.50 1170.17 911.10 1146.83 928.77 C 1144.19 930.74 1141.48 933.35 1137.91 933.01 C 1133.24 933.02 1129.14 928.72 1129.82 924.00 C 1129.45 919.50 1133.70 917.08 1136.77 914.73 C 1154.88 901.15 1172.91 887.47 1191.00 873.85 C 1197.21 869.52 1202.78 864.22 1209.38 860.50 Z" />
<path fill="#fc657e" opacity="1.00" d=" M 177.16 999.17 C 181.25 998.82 186.40 998.08 189.24 1001.82 C 193.49 1006.33 190.42 1015.11 184.17 1015.72 C 163.45 1017.59 142.70 1019.04 121.97 1020.86 C 116.45 1021.93 111.31 1016.32 112.31 1010.93 C 112.71 1007.01 116.31 1003.95 120.16 1003.72 C 139.17 1002.32 158.16 1000.70 177.16 999.17 Z" />
<path fill="#fc657e" opacity="1.00" d=" M 635.20 1078.03 C 640.83 1075.55 647.87 1081.00 646.71 1087.12 C 646.49 1091.63 642.02 1093.92 638.51 1095.77 C 602.44 1115.94 566.49 1136.33 530.44 1156.53 C 528.33 1157.66 526.32 1159.01 524.09 1159.90 C 519.05 1161.69 512.81 1157.44 512.96 1152.01 C 512.84 1148.58 514.93 1145.37 517.94 1143.83 C 554.41 1123.34 590.84 1102.80 627.30 1082.31 C 629.92 1080.86 632.41 1079.15 635.20 1078.03 Z" />
<path fill="#fc657e" opacity="1.00" d=" M 1045.42 1078.74 C 1048.73 1076.85 1053.36 1077.09 1056.09 1079.92 C 1059.79 1083.57 1059.18 1090.83 1054.47 1093.38 C 1015.63 1115.32 976.71 1137.15 937.85 1159.05 C 933.92 1161.48 928.17 1160.11 925.89 1156.08 C 923.58 1152.11 924.99 1146.34 929.16 1144.23 C 967.88 1122.34 1006.69 1100.61 1045.42 1078.74 Z" />
<path fill="#fc657e" opacity="1.00" d=" M 1187.42 1078.65 C 1190.88 1077.66 1194.84 1079.09 1196.80 1082.14 C 1211.95 1103.32 1227.25 1124.39 1242.40 1145.57 C 1245.77 1149.74 1244.10 1157.09 1238.81 1158.77 C 1234.62 1160.44 1229.80 1158.27 1227.63 1154.48 C 1212.57 1133.48 1197.38 1112.56 1182.37 1091.52 C 1179.15 1087.00 1182.05 1079.85 1187.42 1078.65 Z" />
<path fill="#fc657e" opacity="1.00" d=" M 421.40 1093.43 C 424.97 1092.02 429.48 1093.25 431.65 1096.48 C 434.06 1099.57 433.66 1104.25 431.07 1107.12 C 421.52 1118.55 411.92 1129.94 402.35 1141.35 C 400.35 1143.86 397.07 1145.35 393.86 1144.79 C 388.72 1144.12 385.12 1138.03 387.26 1133.24 C 388.51 1130.66 390.57 1128.61 392.37 1126.42 C 399.87 1117.57 407.30 1108.65 414.78 1099.77 C 416.75 1097.44 418.56 1094.76 421.40 1093.43 Z" />
<path fill="#fc657e" opacity="1.00" d=" M 1224.61 1215.66 C 1227.58 1213.24 1230.77 1209.97 1234.99 1210.68 C 1240.14 1210.96 1243.84 1216.69 1242.32 1221.54 C 1241.46 1224.87 1238.33 1226.74 1235.85 1228.80 C 1226.98 1235.80 1218.26 1243.00 1209.39 1250.00 L 1181.93 1250.00 C 1196.18 1238.58 1210.44 1227.17 1224.61 1215.66 Z" />
<path fill="#fc657e" opacity="1.00" d=" M 205.52 1238.55 C 207.95 1235.81 212.07 1235.35 215.32 1236.76 C 226.34 1241.12 237.28 1245.68 248.31 1250.00 L 204.79 1250.00 C 202.39 1246.56 202.51 1241.58 205.52 1238.55 Z" />
</g>
<g id="#95b07ffe">
<path fill="#95b07f" opacity="1.00" d=" M 372.26 0.00 L 391.42 0.00 C 393.87 4.78 396.28 9.59 398.54 14.47 C 400.25 18.00 399.35 22.72 396.07 25.01 C 392.04 28.27 385.28 26.70 383.14 21.98 C 379.43 14.69 376.03 7.25 372.26 0.00 Z" />
<path fill="#95b07f" opacity="1.00" d=" M 129.16 150.21 C 131.01 149.42 133.07 149.31 135.06 149.43 C 155.03 151.40 175.03 153.09 195.01 154.94 C 200.58 154.99 204.77 161.57 202.50 166.64 C 201.21 170.02 197.61 172.35 193.98 171.88 C 173.59 170.44 153.27 168.23 132.92 166.49 C 129.10 166.34 125.29 163.82 124.55 159.92 C 123.74 156.16 125.62 151.84 129.16 150.21 Z" />
<path fill="#95b07f" opacity="1.00" d=" M 525.33 384.42 C 528.29 383.25 531.94 383.37 534.55 385.33 C 552.63 398.64 570.73 411.93 588.84 425.19 C 591.32 426.99 593.39 429.80 593.04 433.03 C 593.15 439.18 585.09 443.69 580.02 440.01 C 561.28 426.42 542.66 412.65 524.01 398.94 C 519.17 395.50 519.93 386.92 525.33 384.42 Z" />
<path fill="#95b07f" opacity="1.00" d=" M 937.30 384.37 C 940.28 383.26 943.94 383.37 946.52 385.41 C 964.74 398.89 983.10 412.17 1001.27 425.70 C 1006.06 428.86 1005.82 436.98 1000.91 439.91 C 997.86 442.07 993.61 441.59 990.79 439.30 C 973.66 426.73 956.55 414.11 939.38 401.58 C 936.91 399.73 933.87 398.03 932.91 394.89 C 931.44 390.93 933.56 386.18 937.30 384.37 Z" />
<path fill="#95b07f" opacity="1.00" d=" M 147.44 513.71 C 152.06 511.22 158.88 513.83 159.82 519.22 C 163.34 535.81 166.64 552.45 170.11 569.05 C 170.68 571.98 171.51 574.99 170.97 578.00 C 169.98 582.62 164.61 585.51 160.17 584.00 C 157.06 583.07 154.73 580.28 154.22 577.10 C 150.50 559.04 146.87 540.96 143.10 522.92 C 142.18 519.31 144.23 515.42 147.44 513.71 Z" />
<path fill="#95b07f" opacity="1.00" d=" M 442.39 670.49 C 446.90 668.65 452.67 671.36 454.02 676.07 C 454.61 677.88 454.08 679.78 453.79 681.61 C 450.59 697.82 447.52 714.05 444.28 730.25 C 443.58 735.65 437.29 738.86 432.41 736.70 C 428.81 735.17 426.66 730.97 427.46 727.15 C 430.67 710.42 433.98 693.70 437.20 676.96 C 437.66 674.10 439.64 671.51 442.39 670.49 Z" />
<path fill="#95b07f" opacity="1.00" d=" M 854.36 670.42 C 858.62 668.77 863.88 671.13 865.53 675.37 C 866.31 677.20 865.91 679.21 865.60 681.11 C 862.49 697.43 859.28 713.73 856.08 730.04 C 855.72 733.36 853.17 736.17 849.98 737.05 C 845.99 738.28 841.22 736.10 839.78 732.14 C 838.68 729.71 839.19 727.00 839.70 724.51 C 842.85 708.66 845.84 692.78 848.99 676.93 C 849.49 674.02 851.51 671.37 854.36 670.42 Z" />
<path fill="#95b07f" opacity="1.00" d=" M 625.38 766.48 C 629.57 763.99 635.64 765.88 637.56 770.39 C 650.58 796.76 663.52 823.17 676.47 849.58 C 678.59 853.04 680.05 857.68 677.26 861.23 C 674.04 866.62 665.27 866.06 662.66 860.38 C 649.21 833.14 635.89 805.81 622.41 778.58 C 620.12 774.60 621.16 768.72 625.38 766.48 Z" />
<path fill="#95b07f" opacity="1.00" d=" M 1037.33 766.42 C 1041.36 764.11 1047.12 765.74 1049.10 770.01 C 1062.53 796.95 1075.58 824.08 1089.00 851.02 C 1090.20 853.44 1091.08 856.26 1090.18 858.95 C 1089.01 863.69 1083.13 866.36 1078.73 864.33 C 1074.96 862.79 1073.52 858.68 1071.85 855.32 C 1059.29 829.53 1046.61 803.79 1033.90 778.08 C 1031.80 774.10 1033.22 768.48 1037.33 766.42 Z" />
<path fill="#95b07f" opacity="1.00" d=" M 307.52 892.75 C 312.41 892.22 318.29 889.51 322.42 893.53 C 327.55 897.49 325.46 906.79 319.04 907.98 C 300.13 911.65 281.04 914.30 262.08 917.67 C 258.44 918.18 254.29 919.46 250.97 917.20 C 246.46 914.45 245.99 907.37 249.78 903.84 C 251.47 902.34 253.70 901.63 255.89 901.23 C 273.12 898.55 290.31 895.54 307.52 892.75 Z" />
<path fill="#95b07f" opacity="1.00" d=" M 1041.25 973.28 C 1045.34 971.55 1049.83 972.81 1054.07 973.12 C 1072.07 974.75 1090.07 976.35 1108.07 978.04 C 1113.57 978.60 1117.22 985.57 1114.38 990.39 C 1112.91 993.50 1109.36 995.35 1105.97 994.87 C 1086.93 993.55 1067.96 991.41 1048.94 989.87 C 1045.32 989.50 1040.99 989.54 1038.53 986.40 C 1035.01 982.48 1036.59 975.54 1041.25 973.28 Z" />
<path fill="#95b07f" opacity="1.00" d=" M 329.37 978.38 C 331.92 976.99 334.95 977.66 337.50 978.67 C 355.90 987.19 374.41 995.49 392.85 1003.93 C 398.05 1005.95 399.65 1013.68 395.62 1017.56 C 393.39 1020.08 389.57 1021.01 386.47 1019.64 C 368.86 1012.13 351.63 1003.80 334.13 996.04 C 330.91 994.45 326.91 993.32 325.27 989.80 C 323.10 985.69 325.34 980.35 329.37 978.38 Z" />
<path fill="#95b07f" opacity="1.00" d=" M 163.17 1082.18 C 168.71 1079.74 175.80 1085.07 174.73 1091.09 C 171.84 1106.91 168.55 1122.67 165.64 1138.49 C 165.05 1142.14 164.14 1146.64 160.30 1148.24 C 154.89 1151.21 146.86 1146.40 147.96 1140.03 C 150.96 1123.01 154.47 1106.07 157.72 1089.09 C 158.12 1086.01 160.27 1083.28 163.17 1082.18 Z" />
<path fill="#95b07f" opacity="1.00" d=" M 731.40 1130.52 C 735.61 1127.96 741.71 1129.84 743.58 1134.44 C 757.08 1161.69 770.39 1189.05 783.84 1216.32 C 786.43 1221.12 783.62 1227.84 778.11 1228.80 C 773.43 1230.03 769.17 1226.48 767.56 1222.33 C 754.51 1195.45 741.27 1168.68 728.07 1141.88 C 726.11 1137.99 727.49 1132.62 731.40 1130.52 Z" />
<path fill="#95b07f" opacity="1.00" d=" M 343.93 1179.93 C 347.64 1175.54 355.74 1176.69 358.03 1182.01 C 369.22 1204.65 380.34 1227.33 391.49 1250.00 L 372.38 1250.00 C 362.44 1230.07 352.70 1210.02 342.86 1190.04 C 341.09 1186.84 341.50 1182.65 343.93 1179.93 Z" />
</g>
<g id="#fbcf62fe">
<path fill="#fbcf62" opacity="1.00" d=" M 0.00 81.84 C 4.55 80.25 9.61 76.90 14.44 79.45 C 20.07 82.11 20.43 90.90 15.19 94.15 C 10.35 96.67 4.98 97.97 0.00 100.18 L 0.00 81.84 Z" />
<path fill="#fbcf62" opacity="1.00" d=" M 1161.33 115.18 C 1190.85 103.94 1220.47 92.95 1250.00 81.72 L 1250.00 100.08 C 1222.53 110.53 1194.98 120.79 1167.49 131.18 C 1163.38 132.95 1158.23 130.72 1156.47 126.69 C 1154.63 122.39 1156.79 116.71 1161.33 115.18 Z" />
<path fill="#fbcf62" opacity="1.00" d=" M 294.56 87.69 C 298.73 86.25 303.63 88.75 305.23 92.79 C 306.03 95.41 305.58 98.25 304.76 100.81 C 296.31 127.03 288.02 153.30 279.60 179.53 C 278.37 183.97 273.37 186.43 269.03 185.22 C 264.49 184.06 261.44 178.68 263.25 174.25 C 271.81 147.52 280.37 120.78 288.83 94.02 C 289.57 91.14 291.67 88.60 294.56 87.69 Z" />
<path fill="#fbcf62" opacity="1.00" d=" M 688.06 151.00 C 693.86 148.80 701.00 154.73 699.28 160.89 C 691.84 191.91 684.31 222.92 676.73 253.92 C 675.45 259.12 668.59 261.79 664.11 258.86 C 660.32 256.85 659.35 251.90 660.53 248.07 C 667.84 218.01 675.10 187.95 682.40 157.89 C 683.02 154.84 685.03 152.01 688.06 151.00 Z" />
<path fill="#fbcf62" opacity="1.00" d=" M 1099.29 151.25 C 1105.16 148.33 1112.95 154.53 1110.97 160.93 C 1103.73 191.60 1096.11 222.16 1088.80 252.81 C 1088.27 255.49 1086.61 257.97 1084.11 259.16 C 1079.96 261.44 1074.33 259.22 1072.46 255.00 C 1071.40 252.75 1071.80 250.20 1072.29 247.87 C 1079.48 218.43 1086.62 188.97 1093.71 159.51 C 1094.35 156.18 1095.85 152.53 1099.29 151.25 Z" />
<path fill="#fbcf62" opacity="1.00" d=" M 292.36 372.45 C 296.69 370.02 302.28 372.33 304.25 376.72 C 312.65 392.41 321.06 408.11 329.40 423.84 C 332.48 429.06 327.81 436.31 321.92 436.28 C 318.43 436.62 315.34 434.20 313.85 431.21 C 305.46 415.30 296.81 399.52 288.50 383.57 C 286.40 379.63 288.50 374.41 292.36 372.45 Z" />
<path fill="#fbcf62" opacity="1.00" d=" M 52.47 434.59 C 55.68 433.72 59.57 433.38 62.24 435.75 C 65.19 438.03 65.54 442.23 64.66 445.60 C 63.73 448.49 60.90 450.25 58.09 450.97 C 38.73 455.92 19.33 460.74 0.00 465.83 L 0.00 448.09 C 17.46 443.48 35.02 439.25 52.47 434.59 Z" />
<path fill="#fbcf62" opacity="1.00" d=" M 1232.38 452.65 C 1238.20 450.90 1244.16 449.68 1250.00 447.99 L 1250.00 465.72 C 1245.93 466.85 1241.83 467.90 1237.74 468.90 C 1233.54 470.16 1228.78 467.57 1227.31 463.51 C 1225.72 459.34 1228.05 454.00 1232.38 452.65 Z" />
<path fill="#fbcf62" opacity="1.00" d=" M 520.20 456.18 C 523.67 455.00 528.10 455.44 530.51 458.47 C 531.97 460.37 532.44 462.79 533.11 465.05 C 542.89 500.91 552.81 536.72 562.66 572.56 C 563.82 576.37 562.63 581.14 559.00 583.19 C 554.65 585.97 548.02 583.71 546.60 578.67 C 536.74 543.47 527.21 508.17 517.44 472.94 C 516.64 469.98 515.56 467.05 515.37 463.98 C 515.18 460.71 517.23 457.50 520.20 456.18 Z" />
<path fill="#fbcf62" opacity="1.00" d=" M 931.44 456.48 C 935.75 454.15 942.34 456.02 943.65 461.07 C 953.89 497.67 963.79 534.37 973.98 570.99 C 974.80 573.86 975.52 577.13 973.89 579.86 C 971.71 584.35 965.32 585.80 961.37 582.81 C 958.20 580.66 957.75 576.63 956.76 573.25 C 946.98 537.65 937.19 502.05 927.40 466.45 C 926.22 462.72 927.97 458.32 931.44 456.48 Z" />
<path fill="#fbcf62" opacity="1.00" d=" M 773.42 590.51 C 778.71 587.23 786.73 591.64 786.23 597.99 C 784.56 622.68 782.66 647.37 780.91 672.06 C 780.72 675.19 780.67 678.78 778.11 681.03 C 774.43 684.92 767.26 684.00 764.72 679.27 C 762.78 676.14 763.89 672.36 763.98 668.94 C 765.67 645.28 767.44 621.62 769.12 597.96 C 769.21 594.98 770.71 591.93 773.42 590.51 Z" />
<path fill="#fbcf62" opacity="1.00" d=" M 1185.32 590.51 C 1190.60 587.07 1198.54 591.79 1198.01 598.06 C 1196.34 622.07 1194.51 646.07 1192.82 670.07 C 1192.65 674.17 1192.70 679.20 1188.96 681.86 C 1183.88 686.05 1174.93 681.64 1175.34 675.03 C 1177.11 649.36 1179.01 623.70 1180.92 598.04 C 1180.90 594.96 1182.56 591.93 1185.32 590.51 Z" />
<path fill="#fbcf62" opacity="1.00" d=" M 258.33 611.40 C 260.84 609.98 263.89 610.19 266.45 611.37 C 294.98 622.91 323.53 634.37 352.06 645.91 C 355.35 647.14 357.89 650.42 357.67 654.03 C 357.84 659.71 351.18 664.35 345.96 661.91 C 318.82 651.14 291.81 640.05 264.68 629.23 C 261.75 628.00 258.50 627.12 256.17 624.83 C 252.38 621.10 253.52 613.75 258.33 611.40 Z" />
<path fill="#fbcf62" opacity="1.00" d=" M 1192.50 797.59 C 1195.33 796.00 1198.65 796.87 1201.62 797.57 C 1217.72 801.65 1233.90 805.41 1250.00 809.47 L 1250.00 827.14 C 1231.68 822.52 1213.28 818.19 1194.95 813.64 C 1192.26 812.97 1189.71 811.20 1188.60 808.62 C 1187.34 804.67 1188.45 799.45 1192.50 797.59 Z" />
<path fill="#fbcf62" opacity="1.00" d=" M 0.00 809.42 C 10.32 811.98 20.69 814.38 30.98 817.09 C 36.11 818.39 38.30 825.20 35.58 829.55 C 33.78 832.74 29.77 834.43 26.22 833.47 C 17.47 831.35 8.71 829.27 0.00 827.03 L 0.00 809.42 Z" />
<path fill="#fbcf62" opacity="1.00" d=" M 858.55 868.62 C 862.55 867.23 866.98 869.47 868.81 873.15 C 877.32 888.98 885.79 904.84 894.21 920.72 C 897.32 926.20 892.03 933.64 885.90 933.03 C 882.52 933.06 879.81 930.47 878.40 927.61 C 870.14 911.92 861.62 896.36 853.41 880.64 C 850.78 876.18 853.70 869.96 858.55 868.62 Z" />
<path fill="#fbcf62" opacity="1.00" d=" M 495.46 1001.67 C 499.76 1000.13 505.14 1002.63 506.48 1007.05 C 507.00 1009.63 506.64 1012.29 506.54 1014.91 C 504.72 1039.31 503.09 1063.72 501.14 1088.10 C 500.63 1094.60 491.37 1097.51 486.90 1093.02 C 484.18 1090.89 484.06 1087.18 484.36 1084.04 C 486.17 1059.20 487.93 1034.36 489.79 1009.53 C 489.93 1006.10 492.10 1002.70 495.46 1001.67 Z" />
<path fill="#fbcf62" opacity="1.00" d=" M 907.38 1001.64 C 912.71 999.68 919.13 1004.23 918.62 1010.01 C 916.78 1035.70 914.91 1061.40 913.03 1087.09 C 912.95 1090.29 910.92 1093.29 907.98 1094.55 C 902.79 1097.07 895.87 1092.72 895.84 1086.99 C 897.86 1061.05 899.61 1035.09 901.57 1009.15 C 901.79 1005.78 904.12 1002.62 907.38 1001.64 Z" />
<path fill="#fbcf62" opacity="1.00" d=" M 1228.42 1023.41 C 1231.01 1021.88 1234.27 1021.97 1237.01 1023.11 C 1241.35 1024.81 1245.70 1026.55 1250.00 1028.40 L 1250.00 1046.92 C 1243.19 1044.00 1236.25 1041.40 1229.43 1038.53 C 1223.32 1036.28 1223.01 1026.60 1228.42 1023.41 Z" />
<path fill="#fbcf62" opacity="1.00" d=" M 0.00 1028.28 C 24.10 1038.14 48.29 1047.77 72.42 1057.54 C 77.35 1059.12 79.89 1065.56 77.13 1070.00 C 75.00 1073.91 69.77 1075.31 65.82 1073.41 C 43.89 1064.51 21.89 1055.79 0.00 1046.81 L 0.00 1028.28 Z" />
<path fill="#fbcf62" opacity="1.00" d=" M 502.05 1209.00 C 505.68 1207.92 509.43 1209.14 512.99 1209.98 C 538.28 1216.22 563.61 1222.32 588.91 1228.55 C 593.47 1229.42 596.47 1234.44 595.45 1238.90 C 594.48 1243.36 589.48 1246.52 585.04 1245.20 C 557.70 1238.58 530.34 1231.96 503.05 1225.18 C 495.31 1223.61 494.85 1211.60 502.05 1209.00 Z" />
<path fill="#fbcf62" opacity="1.00" d=" M 912.63 1209.66 C 915.59 1207.82 919.28 1208.73 922.47 1209.39 C 948.63 1215.85 974.83 1222.13 1000.99 1228.61 C 1005.04 1229.58 1007.91 1233.83 1007.32 1237.96 C 1006.93 1242.71 1001.82 1246.51 997.16 1245.28 C 969.93 1238.67 942.70 1232.01 915.47 1225.37 C 912.32 1224.66 909.42 1222.27 908.78 1219.02 C 907.90 1215.48 909.59 1211.59 912.63 1209.66 Z" />
</g>
</svg>
